<svg width="107" height="107" viewBox="0 0 107 107" fill="none" xmlns="http://www.w3.org/2000/svg">
<circle cx="53.1624" cy="53.1624" r="53.1624" fill="#800030"/>
<path d="M65.1988 54.3327H63.248C62.97 54.9117 62.6514 55.4704 62.2946 56.0045H65.1988V54.3327ZM41.7939 52.6609V54.3327H43.7447C43.4865 53.7927 43.2699 53.2338 43.0969 52.6609H41.7939Z" fill="white"/>
<path d="M56.0045 53.6943L53.3019 59.0993L50.7943 50.7405L48.9981 54.3327H43.7451C44.2675 55.4256 44.9728 56.4961 45.8677 57.555C47.9637 60.0345 50.7916 61.7214 53.025 63.214L53.4952 63.5275L53.9654 63.214C56.2004 61.7214 59.0283 60.0345 61.1227 57.555C61.5429 57.0611 61.9344 56.5434 62.295 56.0045H57.1595L56.0045 53.6943Z" fill="white"/>
<path d="M51.1844 46.2225L53.6921 54.5814L56.0049 49.9558L58.1933 54.3327H63.2489C64.0013 52.781 64.3829 51.0757 64.3637 49.3513C64.3308 46.1065 61.7276 43.4662 58.5606 43.4662C56.0472 43.4662 54.3759 44.929 53.4972 45.9848C52.6185 44.929 50.9472 43.4662 48.4338 43.4662C45.2668 43.4662 42.6636 46.1065 42.6307 49.3513C42.6174 50.4718 42.7749 51.5878 43.0977 52.6609H47.9652L51.1844 46.2225Z" fill="white"/>
<path d="M55.5735 15.2269L54.8412 8.87064L55.5918 8.98579L56.1045 14.1498L56.1641 14.159L58.225 9.38973L59.059 9.51768L59.5956 14.6854L59.6551 14.6945L61.6922 9.92162L62.4428 10.0368L59.8389 15.8812L59.0764 15.7643L58.4758 10.6965L58.4281 10.6892L56.336 15.3439L55.5735 15.2269Z" fill="white"/>
<path d="M71.9283 16.6083C71.6548 17.199 71.3118 17.6601 70.8993 17.9916C70.4868 18.3231 70.0406 18.5195 69.5606 18.5806C69.0807 18.6418 68.6019 18.5618 68.1242 18.3407C67.6466 18.1196 67.2758 17.8062 67.0119 17.4007C66.748 16.9951 66.609 16.5279 66.5949 15.9988C66.5808 15.4698 66.7105 14.91 66.984 14.3193C67.2574 13.7286 67.6004 13.2675 68.0129 12.936C68.4254 12.6045 68.8716 12.4082 69.3516 12.347C69.8315 12.2858 70.3103 12.3658 70.788 12.5869C71.2657 12.8081 71.6364 13.1214 71.9003 13.5269C72.1642 13.9325 72.3032 14.3998 72.3173 14.9288C72.3314 15.4578 72.2017 16.0176 71.9283 16.6083ZM71.2719 16.3045C71.4965 15.8195 71.6048 15.3727 71.597 14.9639C71.591 14.556 71.4901 14.2026 71.2941 13.9038C71.1 13.6058 70.8334 13.3784 70.4943 13.2214C70.1552 13.0644 69.8083 13.0078 69.4537 13.0518C69.1009 13.0965 68.7661 13.2482 68.4494 13.5067C68.1345 13.766 67.8648 14.1382 67.6403 14.6231C67.4158 15.1081 67.3065 15.5545 67.3125 15.9624C67.3203 16.3712 67.4212 16.7245 67.6154 17.0225C67.8113 17.3214 68.0788 17.5493 68.4179 17.7062C68.757 17.8632 69.103 17.9194 69.4558 17.8746C69.8104 17.8307 70.1452 17.679 70.4601 17.4197C70.7768 17.1612 71.0474 16.7894 71.2719 16.3045Z" fill="white"/>
<path d="M74.6009 21.5661L78.4527 16.7439L80.0821 18.0454C80.4588 18.3463 80.7167 18.6577 80.8556 18.9795C80.9958 19.2998 81.0349 19.6177 80.973 19.9334C80.9111 20.2491 80.7667 20.549 80.5398 20.8331C80.3128 21.1172 80.0535 21.3228 79.7618 21.4498C79.4701 21.5767 79.154 21.6071 78.8135 21.5408C78.4743 21.473 78.1179 21.2899 77.7443 20.9914L76.4257 19.9382L76.847 19.4108L78.1468 20.449C78.4042 20.6546 78.6415 20.7824 78.8586 20.8325C79.0774 20.8838 79.2772 20.8686 79.4582 20.7869C79.642 20.7048 79.811 20.5673 79.9652 20.3742C80.1195 20.1811 80.2182 19.9835 80.2613 19.7815C80.3044 19.5794 80.2781 19.3758 80.1822 19.1706C80.0877 18.9639 79.9101 18.7565 79.6495 18.5484L78.6229 17.7283L75.1848 22.0325L74.6009 21.5661ZM78.601 21.213L78.0574 24.3271L77.3793 23.7854L77.9417 20.6863L78.601 21.213Z" fill="white"/>
<path d="M81.2065 27.1426L86.0025 23.2582L86.4729 23.839L82.192 27.3061L83.9977 29.5355L83.4825 29.9528L81.2065 27.1426Z" fill="white"/>
<path d="M86.9808 35.1645L86.1445 33.4534L91.6895 30.7434L92.5628 32.5304C92.8257 33.0682 92.9396 33.5828 92.9046 34.0739C92.8714 34.5642 92.698 35.0123 92.3843 35.4183C92.0725 35.8234 91.6295 36.1662 91.0556 36.4467C90.478 36.729 89.9304 36.8692 89.4129 36.8672C88.8972 36.8643 88.4312 36.7208 88.0151 36.4367C87.6008 36.1517 87.256 35.7276 86.9808 35.1645ZM87.0683 33.8337L87.5553 34.8301C87.7793 35.2885 88.0535 35.6253 88.3777 35.8402C88.7019 36.0552 89.0635 36.1569 89.4625 36.1452C89.8616 36.1336 90.2867 36.0175 90.738 35.7969C91.1856 35.5782 91.5353 35.3167 91.7869 35.0126C92.0403 34.7076 92.1827 34.3675 92.2139 33.9922C92.247 33.616 92.1577 33.2113 91.946 32.7781L91.422 31.706L87.0683 33.8337Z" fill="white"/>
<path d="M95.9914 40.8502L93.9399 41.3909L93.771 40.7498L95.8224 40.2091L95.9914 40.8502Z" fill="white"/>
<path d="M96.1649 50.4607C96.4669 50.4029 96.6929 50.2397 96.8429 49.9712C96.9929 49.7026 97.0546 49.382 97.028 49.0093C97.0085 48.7367 96.9474 48.5014 96.8446 48.3033C96.742 48.1072 96.6095 47.9576 96.447 47.8544C96.2847 47.7532 96.1053 47.7096 95.9089 47.7236C95.7446 47.7354 95.6061 47.7845 95.4935 47.8711C95.383 47.9596 95.2931 48.0687 95.2238 48.1986C95.1565 48.3282 95.1027 48.463 95.0624 48.6028C95.024 48.7425 94.9939 48.8706 94.972 48.987L94.8483 49.6242C94.8177 49.7875 94.7723 49.97 94.7122 50.1717C94.6522 50.3754 94.5645 50.572 94.4492 50.7615C94.3359 50.9529 94.1844 51.1148 93.9944 51.2472C93.8045 51.3796 93.5652 51.4561 93.2767 51.4767C92.944 51.5004 92.6372 51.4347 92.3562 51.2796C92.0754 51.1264 91.8439 50.8892 91.6619 50.5678C91.4799 50.2485 91.3721 49.8524 91.3383 49.3794C91.3068 48.9386 91.3507 48.5518 91.4699 48.219C91.5893 47.8882 91.7696 47.6215 92.011 47.419C92.2524 47.2184 92.5406 47.0941 92.8756 47.046L92.9305 47.8155C92.6995 47.8522 92.5127 47.9441 92.3702 48.0912C92.2297 48.2402 92.13 48.4226 92.0709 48.6383C92.0139 48.8559 91.9941 49.0869 92.0116 49.3314C92.0319 49.6159 92.0963 49.8681 92.2046 50.088C92.315 50.3077 92.4581 50.4777 92.6338 50.5981C92.8116 50.7183 93.0127 50.7704 93.2372 50.7544C93.4416 50.7398 93.6038 50.6708 93.7239 50.5474C93.844 50.4241 93.9374 50.2663 94.0043 50.0742C94.0711 49.8821 94.1269 49.6757 94.1715 49.455L94.3339 48.6821C94.4378 48.1913 94.608 47.7964 94.8444 47.4975C95.0809 47.1987 95.4065 47.0344 95.8213 47.0048C96.166 46.9802 96.4733 47.0519 96.7431 47.2199C97.015 47.3898 97.2335 47.628 97.3984 47.9345C97.5654 48.2428 97.6629 48.5933 97.691 48.9861C97.7193 49.3829 97.6734 49.7406 97.5532 50.0594C97.4349 50.378 97.26 50.6362 97.0284 50.8341C96.797 51.0339 96.5263 51.1499 96.2164 51.1821L96.1649 50.4607Z" fill="white"/>
<path d="M90.9751 61.5472L96.8731 63.3649L96.2377 65.4269C96.111 65.8377 95.9356 66.1547 95.7112 66.3778C95.4888 66.6015 95.2385 66.7419 94.9602 66.7991C94.6838 66.8569 94.4016 66.8414 94.1136 66.7526C93.8602 66.6745 93.6648 66.5649 93.5275 66.4238C93.3896 66.2846 93.2952 66.1272 93.2441 65.9517C93.1925 65.7782 93.1697 65.5998 93.1757 65.4167L93.1181 65.3989C93.051 65.5758 92.9317 65.7377 92.7603 65.8846C92.5889 66.0315 92.3767 66.1333 92.1238 66.1899C91.8709 66.2465 91.589 66.2269 91.2779 66.131C90.9823 66.0399 90.7371 65.8907 90.5423 65.6836C90.3476 65.4764 90.2258 65.2066 90.1769 64.874C90.128 64.5415 90.1752 64.143 90.3184 63.6783L90.9751 61.5472ZM91.3886 62.4567L90.9519 63.8736C90.8082 64.3401 90.7963 64.6991 90.9164 64.9506C91.0379 65.2046 91.2282 65.3715 91.4874 65.4513C91.6871 65.5129 91.8871 65.5188 92.0874 65.4691C92.2896 65.42 92.4706 65.3171 92.6303 65.1603C92.792 65.0041 92.9125 64.7973 92.9918 64.5401L93.4391 63.0886L91.3886 62.4567ZM94.0611 63.2803L93.6529 64.6051C93.5866 64.8201 93.5691 65.027 93.6003 65.2259C93.6309 65.4266 93.7074 65.6015 93.8296 65.7506C93.9512 65.9016 94.1157 66.0091 94.3231 66.073C94.5823 66.1529 94.8299 66.1304 95.066 66.0055C95.304 65.8813 95.4834 65.6233 95.6041 65.2316L96.0194 63.8838L94.0611 63.2803Z" fill="white"/>
<path d="M88.1778 69.8334L93.5254 72.9144L91.666 76.1418L91.0915 75.8109L92.5779 73.231L90.771 72.19L89.3809 74.6027L88.8064 74.2717L90.1965 71.859L88.3791 70.8119L86.8687 73.4335L86.2943 73.1026L88.1778 69.8334Z" fill="white"/>
<path d="M85.0015 82.5441C85.2509 82.7239 85.5247 82.7762 85.8229 82.7009C86.1211 82.6256 86.3966 82.4503 86.6493 82.175C86.8341 81.9737 86.9632 81.7677 87.0366 81.557C87.1087 81.3477 87.1265 81.1486 87.09 80.9596C87.0521 80.7722 86.9607 80.6118 86.8156 80.4787C86.6943 80.3673 86.5635 80.3004 86.4232 80.2779C86.283 80.2583 86.1419 80.2679 85.9999 80.3067C85.8595 80.3468 85.7245 80.4002 85.5952 80.4669C85.4673 80.5349 85.3535 80.6009 85.2538 80.6649L84.7056 81.0125C84.5659 81.1024 84.402 81.1947 84.2141 81.2895C84.0249 81.3857 83.8217 81.457 83.6047 81.5032C83.3879 81.5523 83.1661 81.5533 82.9394 81.5061C82.7127 81.4589 82.4928 81.3375 82.2797 81.1419C82.0341 80.9163 81.8712 80.6482 81.791 80.3373C81.7096 80.028 81.7231 79.6968 81.8317 79.3438C81.939 78.9923 82.1529 78.6419 82.4736 78.2926C82.7725 77.967 83.0838 77.7333 83.4076 77.5915C83.7301 77.4512 84.0478 77.3992 84.3607 77.4356C84.6723 77.4734 84.9606 77.5976 85.2255 77.8081L84.7038 78.3764C84.5186 78.2336 84.3235 78.1609 84.1186 78.1583C83.9139 78.1585 83.7128 78.2112 83.5154 78.3163C83.3181 78.4243 83.1366 78.5686 82.9708 78.7491C82.7779 78.9593 82.6387 79.1792 82.5533 79.409C82.4693 79.6401 82.4439 79.8608 82.4771 80.0713C82.5117 80.2831 82.612 80.4651 82.7777 80.6172C82.9287 80.7558 83.0902 80.8264 83.2624 80.829C83.4345 80.8316 83.6134 80.7912 83.799 80.7079C83.9845 80.6246 84.1728 80.5234 84.364 80.4044L85.0374 79.9917C85.4656 79.7302 85.8695 79.5828 86.2491 79.5495C86.6288 79.5162 86.9718 79.6402 87.2781 79.9214C87.5327 80.1551 87.6915 80.4277 87.7546 80.7393C87.8178 81.0537 87.7946 81.376 87.685 81.7063C87.5756 82.0394 87.3877 82.351 87.1214 82.6411C86.8524 82.9341 86.5607 83.1464 86.2464 83.2779C85.9336 83.4107 85.6258 83.4608 85.3229 83.4282C85.0187 83.3972 84.7486 83.28 84.5124 83.0769L85.0015 82.5441Z" fill="white"/>
<path d="M81.3037 87.4771L81.6798 88.023L77.8684 90.6495L77.4922 90.1036L79.0902 89.0024L75.9644 84.4664L76.5798 84.0423L79.7056 88.5783L81.3037 87.4771Z" fill="white"/>
<path d="M65.5878 89.9628L67.0477 95.9594L63.4521 96.8348L63.2952 96.1906L66.1647 95.492L65.6714 93.4659L63.0713 94.0989L62.9145 93.4547L65.5146 92.8217L64.8616 90.1396L65.5878 89.9628Z" fill="white"/>
<path d="M57.282 97.8178L56.899 91.6579L57.6449 91.6116L58.0279 97.7714L57.282 97.8178Z" fill="white"/>
<path d="M51.8277 97.4393L51.7477 98.0974L47.1527 97.5391L47.2327 96.881L49.1593 97.1151L49.8237 91.6465L50.5656 91.7367L49.9012 97.2052L51.8277 97.4393Z" fill="white"/>
<path d="M36.7819 94.757L38.9629 88.9835L39.6395 89.2391L41.0732 94.9607L41.1296 94.982L42.842 90.4488L43.5411 90.7129L41.3602 96.4865L40.6836 96.2309L39.2429 90.4938L39.1865 90.4725L37.4698 95.0169L36.7819 94.757Z" fill="white"/>
<path d="M34.6666 87.0442L31.2028 92.1522L28.12 90.0618L28.4921 89.5131L30.9563 91.1841L32.1267 89.4581L29.8221 87.8953L30.1942 87.3466L32.4988 88.9094L33.6759 87.1735L31.1718 85.4754L31.5439 84.9267L34.6666 87.0442Z" fill="white"/>
<path d="M22.2156 82.9431C22.018 83.1787 21.9457 83.4479 21.999 83.7508C22.0522 84.0538 22.2068 84.3414 22.4628 84.6136C22.65 84.8126 22.846 84.9565 23.0508 85.0452C23.2542 85.1325 23.4514 85.1648 23.6426 85.1423C23.8323 85.1182 23.9989 85.0388 24.1424 84.9039C24.2624 84.7911 24.3387 84.6655 24.3714 84.5272C24.4012 84.3888 24.402 84.2475 24.3737 84.103C24.344 83.96 24.3007 83.8215 24.2437 83.6876C24.1852 83.555 24.1277 83.4367 24.0712 83.3327L23.7647 82.7604C23.6854 82.6144 23.6053 82.4443 23.5246 82.2499C23.4425 82.0541 23.3863 81.8463 23.3561 81.6265C23.3231 81.4066 23.3384 81.1854 23.4021 80.9628C23.4658 80.7402 23.603 80.5298 23.8137 80.3316C24.0567 80.1031 24.3361 79.9603 24.6519 79.9032C24.9664 79.8446 25.2957 79.8825 25.6398 80.0167C25.9825 80.1494 26.3163 80.3885 26.6411 80.7339C26.9439 81.0559 27.1541 81.3835 27.2718 81.7169C27.3881 82.0488 27.4166 82.3694 27.3574 82.6789C27.2967 82.9868 27.1517 83.2652 26.9224 83.514L26.3939 82.952C26.5499 82.7777 26.6367 82.5885 26.6543 82.3844C26.6691 82.1802 26.6314 81.9758 26.541 81.7712C26.4478 81.5665 26.3172 81.3749 26.1493 81.1963C25.9539 80.9885 25.7447 80.8336 25.5219 80.7315C25.2976 80.6308 25.0793 80.5893 24.867 80.6069C24.6532 80.626 24.4643 80.7125 24.3004 80.8667C24.1512 81.0071 24.0689 81.163 24.0537 81.3345C24.0385 81.506 24.0656 81.6874 24.1351 81.8785C24.2045 82.0697 24.2916 82.265 24.3963 82.4643L24.7585 83.1662C24.9879 83.6124 25.1052 84.026 25.1106 84.4071C25.1159 84.7881 24.9671 85.1211 24.6642 85.406C24.4125 85.6427 24.1289 85.7811 23.8136 85.8212C23.4954 85.8612 23.1757 85.8144 22.8543 85.6809C22.5301 85.5473 22.2331 85.3371 21.9633 85.0502C21.6908 84.7604 21.5005 84.454 21.3925 84.1309C21.283 83.8092 21.2556 83.4985 21.3103 83.1989C21.3636 82.8978 21.5002 82.6369 21.7202 82.4162L22.2156 82.9431Z" fill="white"/>
<path d="M16.4311 75.2188C16.1858 75.4043 16.0553 75.6507 16.0396 75.9579C16.0239 76.2651 16.1105 76.5799 16.2993 76.9024C16.4374 77.1381 16.5963 77.3221 16.7761 77.4543C16.9549 77.5847 17.14 77.6603 17.3314 77.6809C17.5217 77.6999 17.7018 77.6596 17.8717 77.5601C18.0139 77.4769 18.1163 77.3715 18.179 77.244C18.239 77.1158 18.2713 76.9781 18.276 76.831C18.2789 76.685 18.2676 76.5403 18.2419 76.397C18.2145 76.2548 18.1848 76.1266 18.153 76.0126L17.9819 75.3864C17.9371 75.2264 17.897 75.0427 17.8617 74.8352C17.8253 74.626 17.817 74.4109 17.8366 74.1899C17.8534 73.9682 17.9177 73.7559 18.0295 73.5531C18.1412 73.3504 18.3219 73.1759 18.5716 73.0297C18.8594 72.8612 19.1636 72.7844 19.4842 72.7992C19.8038 72.8122 20.1164 72.9226 20.4218 73.1302C20.7263 73.3361 20.9983 73.6436 21.2379 74.0527C21.4612 74.4342 21.593 74.8005 21.6333 75.1517C21.6727 75.5011 21.6289 75.8201 21.5021 76.1085C21.3743 76.3952 21.1709 76.6342 20.8918 76.8255L20.502 76.1598C20.693 76.0247 20.8198 75.8596 20.8826 75.6646C20.9425 75.4688 20.9513 75.2611 20.9089 75.0416C20.8637 74.8212 20.7792 74.6053 20.6553 74.3938C20.5112 74.1476 20.3419 73.9499 20.1474 73.8007C19.9512 73.6525 19.7477 73.5633 19.5368 73.5331C19.3242 73.504 19.1208 73.5462 18.9266 73.6599C18.7498 73.7635 18.6348 73.8971 18.5817 74.0609C18.5286 74.2247 18.5146 74.4075 18.5396 74.6094C18.5647 74.8112 18.606 75.021 18.6636 75.2387L18.8601 76.0036C18.9841 76.4898 19.0062 76.9192 18.9264 77.2918C18.8466 77.6645 18.6273 77.9559 18.2684 78.166C17.9702 78.3406 17.6629 78.4122 17.3466 78.3809C17.0275 78.3489 16.7263 78.232 16.4428 78.0301C16.1565 77.8275 15.914 77.5563 15.715 77.2165C15.514 76.8732 15.3969 76.5321 15.3637 76.193C15.3287 75.855 15.3713 75.546 15.4915 75.2661C15.6106 74.9845 15.802 74.7607 16.0656 74.5947L16.4311 75.2188Z" fill="white"/>
<path d="M16.2238 63.0378L10.1306 64.0189L9.79909 61.96C9.72213 61.482 9.7455 61.0774 9.8692 60.7461C9.9906 60.4132 10.1853 60.1499 10.4532 59.9561C10.7211 59.7624 11.0346 59.6367 11.3936 59.5789C11.7526 59.521 12.0907 59.5419 12.4079 59.6414C12.7248 59.7389 12.9949 59.9254 13.2183 60.2008C13.4398 60.4765 13.5886 60.8513 13.665 61.3254L13.9026 62.8011L13.248 62.9065L13.0142 61.4546C12.9616 61.1273 12.8627 60.8736 12.7177 60.6934C12.5727 60.5133 12.3968 60.3941 12.1901 60.3358C11.981 60.2759 11.7545 60.2655 11.5105 60.3048C11.2665 60.3441 11.0557 60.4248 10.878 60.5471C10.7 60.6673 10.5725 60.8364 10.4957 61.0542C10.4169 61.2725 10.4041 61.5472 10.4575 61.8784L10.6663 63.1756L16.105 62.3L16.2238 63.0378Z" fill="white"/>
<path d="M15.0583 54.4327L8.89988 54.0283L9.03652 51.9474C9.06811 51.4663 9.17623 51.0767 9.36089 50.7788C9.54354 50.4808 9.78207 50.2669 10.0765 50.1372C10.3709 50.0076 10.6995 49.9547 11.0624 49.9785C11.4252 50.0023 11.7421 50.0976 12.013 50.2644C12.2839 50.4312 12.4895 50.6732 12.6298 50.9904C12.768 51.3076 12.8214 51.7047 12.7901 52.1818L12.6795 53.8657L12.006 53.8215L12.115 52.1616C12.1365 51.8329 12.1058 51.5651 12.0227 51.3583C11.9398 51.1495 11.8131 50.9942 11.6426 50.8924C11.4702 50.7885 11.2608 50.7284 11.0142 50.7122C10.7676 50.696 10.5491 50.728 10.3586 50.8081C10.1681 50.8882 10.0161 51.0262 9.90257 51.2221C9.78703 51.4178 9.71834 51.6821 9.69649 52.0149L9.6104 53.326L15.1073 53.6869L15.0583 54.4327ZM12.4822 51.3522L15.3482 50.0183L15.2913 50.8843L12.4269 52.1942L12.4822 51.3522Z" fill="white"/>
<path d="M14.419 39.8722C15.0396 40.0686 15.5405 40.3504 15.9216 40.7176C16.3027 41.0847 16.554 41.5025 16.6755 41.9708C16.797 42.4391 16.7784 42.9242 16.6196 43.426C16.4607 43.9279 16.1969 44.3354 15.8281 44.6485C15.4593 44.9617 15.0134 45.1588 14.4904 45.2398C13.9675 45.3209 13.3957 45.2632 12.7751 45.0668C12.1545 44.8704 11.6537 44.5886 11.2726 44.2215C10.8914 43.8543 10.6401 43.4366 10.5186 42.9682C10.3971 42.4999 10.4157 42.0148 10.5746 41.513C10.7334 41.0112 10.9972 40.6037 11.366 40.2905C11.7349 39.9774 12.1807 39.7803 12.7037 39.6992C13.2267 39.6182 13.7984 39.6758 14.419 39.8722ZM14.2008 40.5618C13.6913 40.4005 13.2343 40.3497 12.8299 40.4092C12.426 40.4669 12.0883 40.6118 11.8167 40.844C11.5457 41.0744 11.3539 41.3677 11.2411 41.7239C11.1284 42.0802 11.1163 42.4314 11.2048 42.7776C11.2939 43.1219 11.4867 43.4348 11.7833 43.7162C12.0805 43.9956 12.4838 44.216 12.9933 44.3772C13.5028 44.5385 13.9595 44.5903 14.3634 44.5327C14.7678 44.4731 15.1055 44.3282 15.3765 44.0979C15.6481 43.8656 15.8403 43.5713 15.953 43.2151C16.0657 42.8588 16.0776 42.5085 15.9884 42.1643C15.8999 41.8181 15.7071 41.5052 15.4099 41.2257C15.1133 40.9443 14.7103 40.723 14.2008 40.5618Z" fill="white"/>
<path d="M17.6117 30.7354C17.4046 30.6839 17.2041 30.6614 17.0103 30.668C16.8158 30.6718 16.6306 30.7063 16.4547 30.7715C16.2798 30.835 16.1172 30.9299 15.9669 31.0562C15.8166 31.1826 15.6823 31.3402 15.5639 31.5292C15.3698 31.8391 15.2733 32.1709 15.2744 32.5249C15.2755 32.8788 15.3849 33.2283 15.6025 33.5733C15.8202 33.9183 16.1555 34.2327 16.6084 34.5164C17.0612 34.8001 17.4909 34.9638 17.8974 35.0075C18.3039 35.0512 18.6682 34.9938 18.9904 34.8353C19.3125 34.6768 19.5749 34.4358 19.7776 34.1123C19.9653 33.8127 20.0668 33.5088 20.0821 33.2006C20.0967 32.8897 20.0265 32.5968 19.8716 32.322C19.716 32.0443 19.4782 31.8052 19.1581 31.6047L19.3205 31.4362L18.335 33.0093L17.7731 32.6573L19.0211 30.6654L19.5829 31.0174C20.0137 31.2873 20.3306 31.6139 20.5338 31.9972C20.738 32.3788 20.827 32.7854 20.8008 33.2171C20.7739 33.6459 20.6303 34.0681 20.3701 34.4835C20.0799 34.9466 19.716 35.2852 19.2784 35.4994C18.8418 35.7118 18.3613 35.7901 17.8369 35.7342C17.3135 35.6765 16.776 35.4749 16.2244 35.1293C15.8107 34.8701 15.4733 34.5817 15.2124 34.2641C14.9508 33.9438 14.7674 33.6084 14.6622 33.2579C14.5569 32.9075 14.5296 32.5538 14.5803 32.1967C14.6309 31.8396 14.7613 31.4934 14.9714 31.158C15.1442 30.8822 15.347 30.6513 15.5798 30.4652C15.8119 30.2763 16.0624 30.1357 16.3312 30.0434C16.5994 29.9483 16.8777 29.9033 17.166 29.9085C17.4527 29.9127 17.7378 29.9704 18.0213 30.0817L17.6117 30.7354Z" fill="white"/>
<path d="M24.2718 28.6158L19.9581 24.2019L21.4495 22.7443C21.7944 22.4073 22.135 22.1896 22.4714 22.0912C22.8064 21.9913 23.1268 21.9915 23.4325 22.0916C23.7382 22.1917 24.0182 22.3718 24.2723 22.6318C24.5265 22.8919 24.6987 23.1745 24.789 23.4795C24.8792 23.7846 24.8706 24.102 24.7631 24.4318C24.6542 24.7602 24.4288 25.0914 24.0868 25.4256L22.8799 26.6051L22.4081 26.1224L23.5978 24.9597C23.8334 24.7294 23.9894 24.5096 24.0656 24.3002C24.1434 24.0894 24.1528 23.8892 24.0938 23.6996C24.035 23.5071 23.9192 23.3225 23.7465 23.1458C23.5737 22.969 23.3897 22.8469 23.1945 22.7793C22.9992 22.7117 22.7939 22.7129 22.5786 22.7829C22.3618 22.8514 22.1342 23.0022 21.8957 23.2353L20.956 24.1537L24.8063 28.0934L24.2718 28.6158ZM24.4117 24.6025L27.4357 25.5237L26.815 26.1304L23.8082 25.1923L24.4117 24.6025Z" fill="white"/>
<path d="M30.8259 22.5594L30.1551 22.9643L28.9054 16.5095L29.5659 16.1108L34.6957 20.2231L34.0249 20.6281L29.7609 17.1336L29.7196 17.1585L30.8259 22.5594ZM29.8276 20.346L32.5313 18.7137L32.8739 19.2813L30.1702 20.9135L29.8276 20.346Z" fill="white"/>
<path d="M36.793 12.1516L37.6502 11.9049L41.0824 16.2482L41.1519 16.2282L41.751 10.725L42.6082 10.4783L44.3148 16.4094L43.6429 16.6027L42.3463 12.0965L42.2884 12.1132L41.7315 17.1527L41.0828 17.3393L37.9327 13.3664L37.8748 13.3831L39.1714 17.8893L38.4995 18.0826L36.793 12.1516Z" fill="white"/>
</svg>
