<svg width="40" height="40" viewBox="0 0 40 40" fill="none" xmlns="http://www.w3.org/2000/svg">
<path d="M6.66732 33.3334C5.75065 33.3334 4.96621 33.0072 4.31398 32.355C3.66176 31.7028 3.3351 30.9178 3.33398 30V10C3.33398 9.08335 3.66065 8.29891 4.31398 7.64669C4.96732 6.99446 5.75176 6.6678 6.66732 6.66669H33.334C34.2507 6.66669 35.0357 6.99335 35.689 7.64669C36.3423 8.30002 36.6684 9.08446 36.6673 10V30C36.6673 30.9167 36.3412 31.7017 35.689 32.355C35.0368 33.0084 34.2518 33.3345 33.334 33.3334H6.66732ZM33.334 13.3334L20.8757 21.125C20.7368 21.2084 20.5912 21.2711 20.439 21.3134C20.2868 21.3556 20.1406 21.3761 20.0007 21.375C19.8607 21.3739 19.7151 21.3534 19.564 21.3134C19.4129 21.2734 19.2668 21.2106 19.1257 21.125L6.66732 13.3334V30H33.334V13.3334ZM20.0007 18.3334L33.334 10H6.66732L20.0007 18.3334ZM6.66732 13.75V11.2917V11.3334V11.3134V13.75Z" fill="#007946"/>
</svg>
