<svg width="40" height="40" viewBox="0 0 40 40" fill="none" xmlns="http://www.w3.org/2000/svg">
<path d="M13.3327 5C14.166 5 17.4993 12.5 17.4993 13.3333C17.4993 15 14.9993 16.6667 14.166 18.3333C13.3327 20 14.9993 21.6667 16.666 23.3333C17.316 23.9833 19.9993 26.6667 21.666 25.8333C23.3327 25 24.9993 22.5 26.666 22.5C27.4993 22.5 34.9993 25.8333 34.9993 26.6667C34.9993 30 32.4993 32.5 29.9993 33.3333C27.4993 34.1667 25.8327 34.1667 22.4993 33.3333C19.166 32.5 16.666 31.6667 12.4993 27.5C8.33268 23.3333 7.49935 20.8333 6.66602 17.5C5.83268 14.1667 5.83268 12.5 6.66602 10C7.49935 7.5 9.99935 5 13.3327 5Z" stroke="#007946" stroke-width="2.5" stroke-linecap="round" stroke-linejoin="round"/>
</svg>
