<svg width="55" height="55" viewBox="0 0 55 55" fill="none" xmlns="http://www.w3.org/2000/svg">
<g clip-path="url(#clip0_329_1245)">
<path d="M37.2112 16.5677L11.1361 17.3703C10.108 17.4038 9.11532 17.7536 8.29332 18.3719C7.47133 18.9903 6.86004 19.8471 6.54279 20.8255C6.22555 21.804 6.2178 22.8565 6.52059 23.8395C6.82338 24.8225 7.42198 25.6882 8.23478 26.3186L16.0027 32.2987C16.1853 32.4461 16.3367 32.6284 16.448 32.835C16.5593 33.0415 16.6284 33.2682 16.6512 33.5017L17.3772 43.278C17.4401 44.1088 17.7097 44.9107 18.1614 45.6109C18.6131 46.311 19.2326 46.8872 19.9636 47.287C20.6946 47.6868 21.5139 47.8976 22.3471 47.9003C23.1803 47.9029 24.0009 47.6973 24.7344 47.3021C25.4177 46.9249 26.0079 46.3997 26.4619 45.765L41.4649 24.4233C41.9959 23.6641 42.3054 22.7722 42.3591 21.8473C42.4127 20.9224 42.2083 20.0007 41.7687 19.1852C41.3291 18.3696 40.6715 17.6923 39.8693 17.2287C39.0672 16.7651 38.152 16.5335 37.2258 16.5598L37.2112 16.5677ZM38.7289 22.509L23.7259 43.8507C23.526 44.1256 23.2468 44.3328 22.9258 44.4445C22.6048 44.5562 22.2574 44.5672 21.93 44.4758C21.6026 44.3845 21.311 44.1952 21.0942 43.9334C20.8774 43.6716 20.7459 43.3498 20.7172 43.0111L19.9766 33.2428C19.9652 33.1131 19.9463 32.9842 19.9199 32.8568L30.0281 27.4077C30.4172 27.1979 30.707 26.8422 30.8338 26.4188C30.9606 25.9953 30.914 25.5388 30.7043 25.1497C30.4945 24.7607 30.1388 24.4708 29.7154 24.344C29.2919 24.2172 28.8354 24.2638 28.4464 24.4735L18.3382 29.9226C18.2462 29.8305 18.149 29.7438 18.0469 29.6631L10.2936 23.6751C10.0264 23.465 9.82991 23.1782 9.73036 22.8532C9.63082 22.5282 9.63301 22.1806 9.73664 21.8569C9.84028 21.5332 10.0404 21.2489 10.3102 21.0422C10.58 20.8354 10.9065 20.7161 11.246 20.7002L37.3211 19.8976C37.6278 19.8912 37.9303 19.9695 38.1953 20.124C38.4603 20.2784 38.6776 20.503 38.8231 20.7731C38.9687 21.0431 39.0369 21.348 39.0203 21.6543C39.0037 21.9606 38.9028 22.2564 38.7289 22.509Z" fill="#007946"/>
</g>
<defs>
<clipPath id="clip0_329_1245">
<rect width="40" height="40" fill="white" transform="translate(0 18.9808) rotate(-28.3281)"/>
</clipPath>
</defs>
</svg>
