<svg width="24" height="24" viewBox="0 0 24 24" fill="none" xmlns="http://www.w3.org/2000/svg">
<path d="M1.7494 13.0502C1.5494 12.8502 1.4534 12.6169 1.4614 12.3502C1.4694 12.0836 1.57373 11.8502 1.7744 11.6502C1.9744 11.4669 2.20773 11.3709 2.4744 11.3622C2.74107 11.3536 2.9744 11.4496 3.1744 11.6502L6.7244 15.2002L7.0744 15.5502L7.4244 15.9002C7.6244 16.1002 7.7204 16.3336 7.7124 16.6002C7.7044 16.8669 7.60007 17.1002 7.3994 17.3002C7.1994 17.4836 6.96607 17.5796 6.6994 17.5882C6.43273 17.5969 6.1994 17.5009 5.9994 17.3002L1.7494 13.0502ZM12.3494 15.1752L20.8494 6.67524C21.0494 6.47524 21.2827 6.37957 21.5494 6.38824C21.8161 6.3969 22.0494 6.5009 22.2494 6.70024C22.4327 6.90024 22.5287 7.13357 22.5374 7.40024C22.5461 7.6669 22.4501 7.90024 22.2494 8.10024L13.0494 17.3002C12.8494 17.5002 12.6161 17.6002 12.3494 17.6002C12.0827 17.6002 11.8494 17.5002 11.6494 17.3002L7.3994 13.0502C7.21607 12.8669 7.1244 12.6379 7.1244 12.3632C7.1244 12.0886 7.21607 11.8509 7.3994 11.6502C7.5994 11.4502 7.83707 11.3502 8.1124 11.3502C8.38773 11.3502 8.62507 11.4502 8.8244 11.6502L12.3494 15.1752ZM16.5744 8.12524L13.0494 11.6502C12.8661 11.8336 12.6371 11.9252 12.3624 11.9252C12.0877 11.9252 11.8501 11.8336 11.6494 11.6502C11.4494 11.4502 11.3494 11.2129 11.3494 10.9382C11.3494 10.6636 11.4494 10.4259 11.6494 10.2252L15.1744 6.70024C15.3577 6.5169 15.5871 6.42524 15.8624 6.42524C16.1377 6.42524 16.3751 6.5169 16.5744 6.70024C16.7744 6.90024 16.8744 7.13757 16.8744 7.41224C16.8744 7.6869 16.7744 7.92457 16.5744 8.12524Z" fill="#800030"/>
</svg>
