<svg width="24" height="24" viewBox="0 0 24 24" fill="none" xmlns="http://www.w3.org/2000/svg">
<path d="M12 21.5H14.9775C15.0188 20.1313 15.2195 19.3788 15.5795 19.2425C19.3345 17.8175 22 14.217 22 10H2C2 14.1255 4.5515 17.6615 8.1785 19.147C8.5575 19.3023 8.84067 20.0867 9.028 21.5H12Z" stroke="#800030" stroke-width="2" stroke-linejoin="round"/>
<path d="M7.22266 13.5115C7.40266 14.1048 7.64049 14.5952 7.93616 14.9825C8.24446 15.3792 8.6043 15.733 9.00616 16.0345M12.6082 10.013C13.7171 7.73088 14.8208 5.4462 15.9192 3.159C16.4442 2.054 17.5092 1.788 18.4917 2.208C19.4742 2.628 19.8717 3.829 19.4592 4.6665C19.2042 5.18383 18.3392 6.96233 16.8642 10.002" stroke="#800030" stroke-width="2" stroke-linecap="round"/>
</svg>
