<svg width="202" height="109" viewBox="0 0 202 109" fill="none" xmlns="http://www.w3.org/2000/svg">
<path d="M73.873 14.04C74.2463 14.3067 74.2196 14.7067 73.793 15.24C73.313 15.9333 72.6996 16.4933 71.953 16.92C71.2596 17.2933 70.6996 17.4267 70.273 17.32C69.7396 17.16 69.2063 17 68.673 16.84C68.193 16.68 67.6596 16.52 67.073 16.36C65.7396 16.4667 64.4596 16.8933 63.233 17.64C62.0063 18.3333 60.833 19.4 59.713 20.84C58.593 22.2267 57.5263 24.0133 56.513 26.2C55.4996 28.3333 54.513 30.92 53.553 33.96C50.7796 42.9733 46.8863 49.7467 41.873 54.28C36.913 58.76 30.9396 61 23.953 61C20.113 61 17.1263 60.1733 14.993 58.52C12.8596 56.8667 11.793 54.7333 11.793 52.12C11.793 50.2533 12.3796 48.5467 13.553 47C14.7796 45.4 16.2463 44.2267 17.953 43.48C18.1663 43.48 18.2996 43.5867 18.353 43.8C18.4596 44.0133 18.4596 44.2 18.353 44.36C17.4463 45.0533 16.8063 45.8267 16.433 46.68C16.0596 47.5333 15.873 48.52 15.873 49.64C15.873 52.36 16.8863 54.4667 18.913 55.96C20.993 57.4533 23.8996 58.2 27.633 58.2C30.193 58.2 32.433 57.88 34.353 57.24C36.3263 56.5467 38.0863 55.3733 39.633 53.72C41.1796 52.0667 42.593 49.8533 43.873 47.08C45.2063 44.2533 46.5663 40.7067 47.953 36.44C49.873 30.4133 52.2196 25.6667 54.993 22.2C57.7663 18.68 60.9663 16.52 64.593 15.72C61.073 14.8133 57.4196 14.0933 53.633 13.56C49.8463 13.0267 46.0063 12.76 42.113 12.76C39.1263 12.76 36.513 13.24 34.273 14.2C32.033 15.1067 30.193 16.36 28.753 17.96C27.313 19.5067 26.273 21.3467 25.633 23.48C24.993 25.6133 24.833 27.88 25.153 30.28C24.8863 30.8133 24.593 30.8667 24.273 30.44C23.953 27.7733 24.1663 25.1867 24.913 22.68C25.6596 20.1733 26.913 17.9333 28.673 15.96C30.433 13.9867 32.6996 12.4133 35.473 11.24C38.2996 10.0667 41.6596 9.48 45.553 9.48C51.2063 9.48 56.3796 9.96 61.073 10.92C65.7663 11.8267 70.033 12.8667 73.873 14.04ZM66.0948 42.84C66.0948 43.64 66.0148 44.5467 65.8548 45.56C65.6948 46.5733 65.4815 47.6133 65.2148 48.68C66.2815 46.12 67.4548 44.12 68.7348 42.68C70.0148 41.24 71.4015 40.52 72.8948 40.52C73.6948 40.52 74.3082 40.7067 74.7348 41.08C75.1615 41.4533 75.3748 41.9333 75.3748 42.52C75.3748 43.0533 75.1615 43.7467 74.7348 44.6C74.3615 45.4533 74.0415 46.04 73.7748 46.36C73.6682 46.4133 73.5615 46.4133 73.4548 46.36C73.3482 46.2533 73.2948 46.1467 73.2948 46.04C73.2948 45.6667 73.1348 45.3467 72.8148 45.08C72.5482 44.8133 72.1215 44.68 71.5348 44.68C69.6682 44.68 67.9615 45.96 66.4148 48.52C64.9215 51.0267 63.5348 54.6533 62.2548 59.4C62.2015 59.6667 62.0148 59.9067 61.6948 60.12C61.3748 60.28 61.0015 60.44 60.5748 60.6C60.2015 60.7067 59.8015 60.8133 59.3748 60.92C58.9482 60.9733 58.5748 61 58.2548 61C57.6682 61 57.5082 60.68 57.7748 60.04C58.2548 58.92 58.7082 57.72 59.1348 56.44C59.6148 55.1067 60.0415 53.7733 60.4148 52.44C60.7882 51.1067 61.1082 49.8267 61.3748 48.6C61.6415 47.32 61.8548 46.1467 62.0148 45.08C62.1215 44.28 62.1482 43.6667 62.0948 43.24C62.0948 42.8133 61.8815 42.6 61.4548 42.6C60.9215 42.6 60.3615 42.84 59.7748 43.32C59.2415 43.7467 58.7348 44.3067 58.2548 45C58.0415 45.16 57.8282 45.1867 57.6148 45.08C57.4548 44.92 57.4282 44.7333 57.5348 44.52C57.8548 44.0933 58.2282 43.6667 58.6548 43.24C59.1348 42.76 59.6415 42.3333 60.1748 41.96C60.7615 41.5333 61.3482 41.1867 61.9348 40.92C62.5748 40.6533 63.2148 40.52 63.8548 40.52C64.7082 40.52 65.2948 40.7333 65.6148 41.16C65.9348 41.5333 66.0948 42.0933 66.0948 42.84ZM78.088 61C75.848 61 74.728 59.7733 74.728 57.32C74.728 56.4667 74.808 55.48 74.968 54.36C75.1813 53.24 75.4746 52.0933 75.848 50.92C76.2746 49.6933 76.7546 48.4667 77.288 47.24C77.8213 46.0133 78.4613 44.84 79.208 43.72C78.6213 44.0933 78.0613 44.4933 77.528 44.92C76.9946 45.2933 76.5146 45.6933 76.088 46.12C75.928 46.2267 75.768 46.2 75.608 46.04C75.5013 45.8267 75.5013 45.64 75.608 45.48C76.5146 44.52 77.7946 43.5333 79.448 42.52C81.1546 41.5067 82.7813 40.7067 84.328 40.12C84.5946 40.12 84.7813 40.2 84.888 40.36C85.048 40.4667 85.0746 40.6267 84.968 40.84C83.2613 43.08 81.8746 45.5067 80.808 48.12C79.7946 50.7333 79.288 53.2667 79.288 55.72C79.288 57.2667 79.768 58.04 80.728 58.04C81.4213 58.04 82.2746 57.5867 83.288 56.68C84.3013 55.72 85.368 54.4933 86.488 53C87.608 51.4533 88.728 49.72 89.848 47.8C91.0213 45.88 92.088 43.9333 93.048 41.96C93.208 41.64 93.6613 41.32 94.408 41C95.208 40.68 96.008 40.52 96.808 40.52C97.608 40.52 97.848 40.7333 97.528 41.16C96.7813 42.5467 96.1146 43.8533 95.528 45.08C94.9946 46.2533 94.5413 47.4267 94.168 48.6C93.7946 49.7733 93.5013 50.9733 93.288 52.2C93.128 53.3733 93.048 54.68 93.048 56.12C93.048 57.8267 93.5013 58.68 94.408 58.68C95.3146 58.68 96.328 57.88 97.448 56.28C97.608 56.1733 97.768 56.1733 97.928 56.28C98.088 56.3867 98.1413 56.5467 98.088 56.76C97.1813 58.1467 96.168 59.2133 95.048 59.96C93.9813 60.6533 92.9946 61 92.088 61C89.848 61 88.728 59.6933 88.728 57.08C88.728 54.36 89.208 51.6667 90.168 49C88.1413 52.68 86.008 55.6133 83.768 57.8C81.528 59.9333 79.6346 61 78.088 61ZM111.13 40.52C112.304 40.52 113.237 40.68 113.93 41C114.677 41.32 115.05 41.72 115.05 42.2C115.05 42.7867 114.89 43.4533 114.57 44.2C114.304 44.9467 114.037 45.56 113.77 46.04C113.664 46.1467 113.53 46.1733 113.37 46.12C113.21 46.0133 113.13 45.8533 113.13 45.64C113.29 45.2667 113.37 44.7333 113.37 44.04C113.37 43.2933 113.157 42.68 112.73 42.2C112.357 41.72 111.824 41.48 111.13 41.48C110.224 41.48 109.477 41.7733 108.89 42.36C108.357 42.8933 108.09 43.6667 108.09 44.68C108.09 45.5333 108.304 46.36 108.73 47.16C109.21 47.9067 109.717 48.68 110.25 49.48C110.837 50.2267 111.37 51.0533 111.85 51.96C112.33 52.8133 112.57 53.8 112.57 54.92C112.57 56.84 111.797 58.3333 110.25 59.4C108.704 60.4667 106.677 61 104.17 61C102.357 61 100.917 60.7067 99.8505 60.12C98.8371 59.5333 98.3305 58.8933 98.3305 58.2C98.3305 57.9867 98.4105 57.6933 98.5705 57.32C98.7305 56.9467 98.9438 56.5467 99.2105 56.12C99.4771 55.6933 99.7705 55.2667 100.09 54.84C100.41 54.4133 100.757 54.0667 101.13 53.8C101.29 53.6933 101.424 53.72 101.53 53.88C101.69 54.04 101.717 54.2 101.61 54.36C101.29 54.68 101.05 55.0267 100.89 55.4C100.73 55.72 100.65 56.1733 100.65 56.76C100.65 57.72 100.97 58.52 101.61 59.16C102.25 59.7467 103.077 60.04 104.09 60.04C105.477 60.04 106.544 59.6667 107.29 58.92C108.09 58.12 108.49 57.16 108.49 56.04C108.49 55.0267 108.25 54.0933 107.77 53.24C107.344 52.3333 106.864 51.48 106.33 50.68C105.797 49.8267 105.29 48.9733 104.81 48.12C104.384 47.2667 104.17 46.36 104.17 45.4C104.17 44.0133 104.757 42.8667 105.93 41.96C107.104 41 108.837 40.52 111.13 40.52ZM132.975 40.92C133.242 41.0267 133.348 41.1867 133.295 41.4C133.242 41.56 133.002 41.6933 132.575 41.8C131.775 41.8 130.842 41.8267 129.775 41.88C128.762 41.9333 127.668 42.0133 126.495 42.12C125.428 44.7333 124.548 47.2933 123.855 49.8C123.162 52.2533 122.815 54.2533 122.815 55.8C122.815 57.6133 123.508 58.52 124.895 58.52C126.282 58.52 127.828 57.32 129.535 54.92C129.695 54.8133 129.828 54.8133 129.935 54.92C130.095 55.0267 130.148 55.2133 130.095 55.48C129.188 56.9733 128.042 58.28 126.655 59.4C125.268 60.4667 123.908 61 122.575 61C121.188 61 120.148 60.68 119.455 60.04C118.815 59.3467 118.495 58.4133 118.495 57.24C118.495 55.6933 118.868 53.56 119.615 50.84C120.362 48.12 121.322 45.3467 122.495 42.52C121.108 42.68 119.828 42.8933 118.655 43.16C118.388 43.1067 118.308 42.9733 118.415 42.76C118.575 42.5467 118.815 42.3333 119.135 42.12C119.508 41.8533 119.935 41.64 120.415 41.48C120.895 41.2667 121.348 41.16 121.775 41.16C121.988 41.16 122.202 41.16 122.415 41.16C122.628 41.16 122.842 41.1333 123.055 41.08C123.748 39.5333 124.468 38.04 125.215 36.6C125.962 35.16 126.708 33.8533 127.455 32.68C127.775 32.3067 128.202 31.9867 128.735 31.72C129.322 31.4 129.882 31.16 130.415 31C130.948 30.84 131.375 30.76 131.695 30.76C132.068 30.7067 132.228 30.7867 132.175 31C131.268 32.3867 130.362 33.9333 129.455 35.64C128.602 37.3467 127.775 39.1333 126.975 41C127.988 40.9467 129.002 40.92 130.015 40.92C131.082 40.92 132.068 40.92 132.975 40.92ZM149.097 44.52C149.097 47.56 145.07 49.64 137.017 50.76C136.963 51.2933 136.91 51.8267 136.857 52.36C136.857 52.8933 136.857 53.4533 136.857 54.04C136.857 55.4267 137.177 56.4933 137.817 57.24C138.457 57.9867 139.47 58.36 140.857 58.36C141.87 58.36 142.91 58.0667 143.977 57.48C145.043 56.8933 145.897 56.1467 146.537 55.24C146.75 55.1333 146.91 55.1867 147.017 55.4C147.123 55.56 147.15 55.7467 147.097 55.96C146.03 57.3467 144.67 58.5467 143.017 59.56C141.417 60.52 139.683 61 137.817 61C135.95 61 134.59 60.5467 133.737 59.64C132.937 58.68 132.537 57.3467 132.537 55.64C132.537 53.9867 132.883 52.28 133.577 50.52C134.27 48.7067 135.15 47.0533 136.217 45.56C137.337 44.0667 138.59 42.8667 139.977 41.96C141.417 41 142.857 40.52 144.297 40.52C145.737 40.52 146.883 40.9467 147.737 41.8C148.643 42.6 149.097 43.5067 149.097 44.52ZM142.137 42.6C140.91 42.6 139.843 43.1867 138.937 44.36C138.083 45.48 137.497 47.24 137.177 49.64C139.737 49.3733 141.63 48.8933 142.857 48.2C144.083 47.4533 144.697 46.5467 144.697 45.48C144.697 44.68 144.457 44.0133 143.977 43.48C143.497 42.8933 142.883 42.6 142.137 42.6ZM198.561 0.519997C199.361 0.519997 200.001 0.73333 200.481 1.16C201.014 1.58667 201.388 2.14666 201.601 2.84C201.814 3.53333 201.868 4.33333 201.761 5.24C201.654 6.09333 201.388 6.94666 200.961 7.8C200.854 7.90666 200.721 7.96 200.561 7.96C200.401 7.90666 200.294 7.77333 200.241 7.56C200.348 6.76 200.134 6.17333 199.601 5.8C199.068 5.37333 198.321 5.16 197.361 5.16C194.481 5.16 191.708 6.12 189.041 8.04C186.374 9.96 183.841 12.92 181.441 16.92C179.094 20.8667 176.908 25.9067 174.881 32.04C172.908 38.12 171.121 45.3733 169.521 53.8C169.254 54.9733 169.228 55.9867 169.441 56.84C169.654 57.64 170.054 58.04 170.641 58.04C171.228 58.04 171.788 57.8 172.321 57.32C172.854 56.84 173.334 56.2267 173.761 55.48C173.868 55.3733 174.001 55.3733 174.161 55.48C174.374 55.5867 174.454 55.7467 174.401 55.96C174.134 56.4933 173.734 57.0533 173.201 57.64C172.721 58.2267 172.161 58.7867 171.521 59.32C170.934 59.8 170.294 60.2 169.601 60.52C168.961 60.84 168.374 61 167.841 61C166.668 61 165.841 60.5733 165.361 59.72C164.881 58.8667 164.694 57.9067 164.801 56.84C164.908 55.9333 165.041 55.08 165.201 54.28C165.361 53.48 165.548 52.6267 165.761 51.72C164.694 54.0133 163.201 56.0133 161.281 57.72C159.361 59.3733 157.468 60.4667 155.601 61C154.374 61 153.388 60.5467 152.641 59.64C151.894 58.7333 151.521 57.56 151.521 56.12C151.521 54.04 151.894 52.0667 152.641 50.2C153.388 48.28 154.401 46.6 155.681 45.16C156.961 43.72 158.481 42.5733 160.241 41.72C162.001 40.8667 163.894 40.44 165.921 40.44C167.041 40.44 168.028 40.6267 168.881 41C169.841 38.12 170.988 35.1333 172.321 32.04C173.654 28.8933 175.121 25.8267 176.721 22.84C178.321 19.8533 180.001 17 181.761 14.28C183.574 11.56 185.414 9.18666 187.281 7.16C189.148 5.13333 191.041 3.53333 192.961 2.36C194.881 1.13333 196.748 0.519997 198.561 0.519997ZM158.161 57.88C158.748 57.88 159.441 57.5867 160.241 57C161.041 56.36 161.868 55.5333 162.721 54.52C163.574 53.4533 164.374 52.2533 165.121 50.92C165.868 49.5333 166.508 48.0667 167.041 46.52C167.254 46.04 167.441 45.56 167.601 45.08C167.761 44.5467 167.894 44.04 168.001 43.56C167.788 42.92 167.361 42.4667 166.721 42.2C166.134 41.88 165.468 41.72 164.721 41.72C163.601 41.72 162.508 42.0667 161.441 42.76C160.374 43.4 159.441 44.3067 158.641 45.48C157.841 46.6533 157.174 48.04 156.641 49.64C156.161 51.24 155.921 53 155.921 54.92C155.921 55.7733 156.108 56.4933 156.481 57.08C156.908 57.6133 157.468 57.88 158.161 57.88Z" fill="#168765"/>
<path d="M21.739 92.4898C25.6439 91.0964 28.4809 91.8658 32.1997 91.6684C40.3897 91.2358 51.0603 89.8816 59.2965 88.9197C65.5455 88.1974 71.796 87.4144 77.9863 86.4428C78.3043 86.3935 78.5111 86.4686 78.6552 86.4463C80.0129 86.2363 82.2647 85.7622 83.6132 85.5497C86.447 85.1044 91.3747 84.2473 93.9922 83.9056C95.1034 83.7603 96.2396 83.5862 96.7119 83.7664C97.1178 83.7111 97.2997 83.4457 97.4031 83.4155C97.4043 83.4155 97.4056 83.4155 97.4068 83.4155C97.74 83.3197 98.625 83.3355 98.8127 83.2938C98.8408 83.2875 98.6387 83.1513 99.1066 83.1242C99.1482 83.1217 99.1293 83.2404 99.5165 83.1772C99.6172 83.1607 100.883 82.772 101.252 82.7001C102.478 82.4603 105.446 82.1122 106.922 81.8733C107.148 81.837 107.268 81.7502 107.506 81.7109C107.629 81.6904 107.826 81.7324 107.863 81.726C108.029 81.6968 108.704 81.2566 108.545 81.9389C109.297 81.7779 109.04 81.6016 109.035 81.4612C109.856 81.3111 110.3 81.5511 110.466 81.1975C114.525 80.6027 118.597 80.0406 122.683 79.5325C122.677 79.48 122.671 79.4275 122.665 79.375C123.896 79.4232 124.263 79.0164 124.99 79.2314C125.406 79.1099 125.821 78.9891 126.237 78.8688C137.14 77.7241 148.241 76.4101 159.331 76.7825C159.799 76.7968 159.912 76.9119 160.681 76.9413C161.528 76.9738 162.745 76.8986 163.858 76.9649C164.805 77.0165 166.395 77.2436 167.565 77.4102C167.833 77.4472 168.036 77.4033 168.066 77.4078C168.244 77.4351 168.238 77.548 168.41 77.5762C168.615 77.6096 168.881 77.566 169.12 77.6108C170.017 77.7742 171.02 77.9671 171.135 77.997C171.691 78.1364 171.787 78.2792 171.833 78.2913C172.45 78.4654 172.243 78.3105 172.396 78.3578C173.195 78.614 173.678 79.0162 174.846 79.2031C174.784 79.2778 174.721 79.3527 174.659 79.4277C175.462 79.7939 175.009 79.3567 175.194 79.3814C175.274 79.38 177.019 80.1945 177.142 80.2789C177.596 80.5273 177.547 80.6451 177.586 80.6668C177.682 80.7163 178.878 81.2267 179.376 81.6834C179.981 82.2277 179.053 81.9211 179.194 82.069C179.219 82.0909 179.924 82.5316 179.958 82.6547C180.009 82.7904 179.438 82.3969 179.423 82.4311C179.43 82.4594 180.243 83.2398 179.998 83.2108C179.822 83.2151 178.591 82.2132 178.286 82.1067C178.235 82.0867 178.247 82.2623 178.204 82.2424C178.06 82.1153 174.902 80.5506 174.741 80.5178C174.935 80.525 175.13 80.5347 175.326 80.547C175.103 80.4443 174.878 80.3451 174.652 80.2494C174.996 80.3277 175.34 80.4142 175.683 80.5087C175.421 79.7876 173.724 79.7383 173.585 79.9853C173.523 80.0942 174.289 80.7047 173.416 80.5956C173.528 80.6683 173.641 80.7418 173.752 80.8161C174.022 80.8579 174.293 80.9046 174.563 80.9565C174.408 80.8587 174.252 80.7626 174.094 80.6681C174.17 80.6564 174.246 80.645 174.321 80.6339C174.819 80.7606 175.316 80.9043 175.81 81.0653C176.039 81.2019 175.941 81.2789 176.095 81.3762C177.982 82.6354 176.84 81.6507 178.096 82.4305C178.246 82.5905 178.391 82.7501 178.537 82.9143C178.599 82.663 179.108 83.165 179.779 83.5187C179.66 83.5307 179.54 83.543 179.419 83.5555C180.309 83.9924 182.081 86.5382 181.875 85.6573C182.051 85.9303 182.214 86.2111 182.365 86.5022C182.576 86.6884 182.783 86.8893 182.983 87.1026C183.164 87.4481 183.326 87.8074 183.464 88.1753C183.429 88.1914 183.394 88.2075 183.358 88.2235C183.243 87.9356 183.114 87.6558 182.972 87.3821C182.973 87.6421 182.963 87.8984 182.942 88.1499C183.047 88.3439 183.145 88.5424 183.235 88.7453C183.02 87.8317 183.624 88.9201 183.845 89.1913C184.115 89.9741 183.964 90.5253 183.983 90.7877C184.013 90.906 184.384 92.3831 183.99 91.8031C184.035 92.5505 183.994 93.2942 183.884 94.0163C183.795 94.2813 183.686 94.5795 183.574 94.8425C183.574 94.2138 182.861 95.7709 183.156 94.5635C183.361 93.605 183.535 93.4358 183.6 92.9768C183.648 92.5673 183.55 92.3407 183.554 91.8934C183.56 88.8487 182.202 86.3317 180.055 84.5208C179.631 84.1648 179.298 84.0083 179.037 83.816C178.748 83.6061 179.203 83.741 178.802 83.5114C178.371 83.2685 178.219 83.3169 178.112 83.2511C178.045 83.2104 177.891 82.9894 177.693 82.8712C176.886 82.3781 175.593 81.8668 175.471 81.8159C175.346 81.7226 172.898 80.6784 172.772 80.6518C172.712 80.6236 172.96 80.2852 172.279 80.518C172.103 80.4741 171.926 80.4321 171.75 80.392C171.798 80.3241 171.848 80.2563 171.897 80.1886C170.78 80.1993 171.183 80.1279 170.175 79.9295C167.761 79.4491 164.285 79.1435 161.816 79.0664C161.26 79.0478 161.044 79.1325 160.387 79.1147C159.777 79.0963 158.189 78.7742 158.526 79.1714C157.174 78.8033 156.946 79.3831 156.271 79.0133C156.188 79.065 156.105 79.1167 156.022 79.1685C155.286 78.9368 155.056 79.1339 154.251 79.1621C153.904 79.175 154.303 78.933 153.603 79.2037C153.469 79.1846 153.335 79.1657 153.201 79.147C153.232 79.0886 153.262 79.0303 153.293 78.972C152.514 79.0262 152.464 78.9982 152.556 79.2141C152.179 79.1792 151.803 79.1457 151.426 79.1135C151.381 79.1857 151.336 79.258 151.291 79.3302C151.472 79.4189 159.995 79.2642 161.187 79.3005C162.568 79.5165 165.389 79.4693 166.566 79.6496C167.03 79.716 167.217 79.898 167.891 80.0111C168.564 80.1235 169.448 80.1334 169.813 80.2031C171.053 80.2982 176.667 82.3701 172.785 81.1961C172.871 81.3067 172.955 81.4177 173.039 81.5292C174.626 81.8143 174.038 81.7673 175.238 82.3256C175.742 82.5594 177 83.0391 176.757 83.3181C175.832 82.8715 174.89 82.3067 174.054 81.9832C173.971 81.9468 172.928 81.7311 172.426 81.5335C171.975 81.3545 172.387 81.1086 171.266 81.2011C170.599 80.6415 170.072 80.8821 169.867 80.8755C169.507 80.8656 169.506 80.6778 169.16 80.5922C168.784 80.5001 168.502 80.5799 168.451 80.5723C167.928 80.4694 165.236 80.2007 165.113 80.1312C165.224 80.1071 165.337 80.0835 165.449 80.0601C164.746 79.9497 164.883 80.1521 164.698 80.1608C164.56 80.1504 164.427 80.1408 164.292 80.1315C164.348 80.0959 164.404 80.0604 164.46 80.0249C163.644 79.9818 164.261 80.1542 163.114 80.0864C162.386 80.0442 161.638 79.8614 161.567 79.8694C161.546 79.8717 161.771 79.9823 161.474 79.9827C160.981 79.9828 160.131 79.949 160.041 79.8092C159.799 79.8203 159.815 79.955 159.783 79.957C159.643 79.9618 157.237 79.9473 156.806 79.9534C155.612 79.958 154.282 79.9254 152.989 79.9609C152.856 79.9645 152.94 79.8777 152.807 79.8819C152.592 79.8878 151.496 80.0401 151.333 80.0537C150.924 80.0844 149.846 80.0598 149.678 80.1047C149.654 80.111 150.011 80.2163 149.599 80.265C149.141 80.3194 149.383 80.1555 149.358 80.1547C148.42 80.1322 147.834 80.2659 147.197 80.3161C146.991 80.3323 146.604 80.2333 146.313 80.2832C146.28 80.2889 146.352 80.3939 146.32 80.401C145.882 80.4807 145.459 80.3029 145.267 80.301C144.798 80.2967 145.061 80.4303 145.037 80.4328C144.727 80.4561 144.305 80.4285 143.833 80.4675C141.721 80.6431 140.027 80.8015 137.797 80.9987C137.518 81.0237 137.176 80.9511 137.133 80.9551C137.001 80.9686 137.05 81.0876 136.668 81.1221C135.861 81.1944 135.116 81.2759 134.32 81.3568C134.159 81.3731 134.079 81.2666 133.957 81.2771C133.546 81.3127 132.181 81.7629 132.117 81.3958C131.341 81.8138 130.769 81.5934 130.116 81.6727C128.567 81.859 126.153 82.2261 124.607 82.3861C124.281 82.4193 124.117 82.3448 123.936 82.3635C123.611 82.396 121.769 82.6985 121.67 82.6976C121.477 82.6951 121.533 82.2625 120.607 82.7608C120.038 82.8665 120.082 82.6865 119.962 82.6939C119.031 82.7548 118.189 83.2654 118.306 82.8921C117.247 83.1414 116.581 83.4369 116.095 83.1754C116.124 83.3338 115.634 83.5037 115.018 83.5341C115.6 83.1739 115.497 83.0131 117.011 82.841C117.034 82.8383 117.006 82.9601 117.03 82.9574C117.246 82.9337 117.686 82.8103 118.054 82.7636C118.421 82.717 118.229 82.8251 118.375 82.8025C118.51 82.7816 118.489 82.672 118.684 82.6426C119.314 82.5479 119.868 82.4389 120.227 82.3866C120.453 82.3538 120.72 82.4154 120.896 82.3911C121.575 82.2957 123.005 82.0242 123.871 81.921C124.052 81.8997 123.991 82.0184 124.386 81.9757C124.432 81.9708 124.586 81.8352 124.928 81.7668C125.271 81.6985 125.546 81.7205 125.767 81.6804C125.951 81.647 125.86 81.5558 126.24 81.5013C126.557 81.4526 130.164 81.0899 130.362 81.0869C130.646 81.0776 130.796 81.2042 130.965 81.1673C130.995 81.1602 131.03 81.0173 131.134 80.9955C132.842 80.6331 136.694 80.4225 138.676 80.246C142.797 79.8651 146.667 79.5227 150.882 79.3953C150.956 79.3696 151.031 79.3439 151.106 79.3183C150.679 79.3266 150.253 79.3366 149.826 79.3483C149.821 79.2835 149.817 79.2187 149.812 79.1539C149.234 79.1611 149.316 79.3128 149.335 79.4047C149.12 79.3724 148.905 79.3405 148.691 79.309C148.515 79.5408 147.087 79.4484 146.353 79.488C145.876 79.5123 145.314 79.6308 145.062 79.6391C144.531 79.6571 144.536 79.5177 144.494 79.5179C144.423 79.519 143.69 79.6895 143.153 79.7235C142.361 79.7742 142.256 79.5663 141.2 79.8355C139.82 79.8377 138.301 80.0298 136.818 80.1917C137.082 79.9669 135.77 80.2829 135.172 80.3414C131.523 80.6908 127.042 81.1407 123.355 81.555C122.881 81.6082 122.508 81.5407 122.246 81.5802C122.103 81.6015 122.06 81.7463 121.859 81.7553C121.824 81.7566 121.782 81.6323 121.411 81.6637C120.485 81.7404 118.232 82.2773 117.619 82.1176C114.491 82.6097 111.37 83.1284 108.255 83.6642C108.169 83.6248 108.082 83.5854 107.995 83.546C107.445 83.9055 105.077 84.1283 103.938 84.329C101.933 84.6808 99.3866 85.1914 97.6315 85.4968C97.2501 85.5631 96.9247 85.5407 96.5637 85.6033C96.4084 85.6304 96.2315 85.7605 96.0699 85.7884C94.2554 86.103 91.7815 86.4208 89.9542 86.7338C85.8046 87.4441 81.9015 88.0904 77.7 88.7808C63.6211 91.1138 49.4614 92.6277 35.2745 93.9523C35.0843 93.97 35.0828 93.856 34.9353 93.8696C34.065 93.9488 32.131 94.2317 31.1475 94.3232C30.3639 94.3961 29.1034 94.3461 28.851 94.547C31.6603 94.5345 34.5969 94.2295 37.4978 94.0208C37.704 94.0059 37.74 94.1109 37.7656 94.1104C38.2377 94.102 37.9274 93.9829 38.606 93.9098C38.8328 93.8855 40.9628 94.0229 40.6798 93.7057C41.1954 93.7936 44.7394 93.5105 45.4168 93.3954C45.6225 93.3607 45.4657 93.2744 45.5063 93.2651C45.6825 93.2247 45.7773 93.356 45.9373 93.3435C46.3636 93.3091 47.4337 93.0854 47.6392 93.065C48.1121 93.0178 49.5409 92.9843 50.1621 92.8916C50.7314 92.8069 50.6089 92.6726 51.1017 92.6067C51.4901 92.555 51.0789 92.723 51.9525 92.6669C52.3856 92.6391 53.8833 92.3874 54.2494 92.3467C54.6154 92.3063 55.0322 92.3483 55.5362 92.285C56.2623 92.1944 57.8376 91.965 58.5731 91.8501C58.617 91.8434 58.7112 91.7177 58.8202 91.7072C59.0459 91.6855 58.9947 91.8332 59.1664 91.8274C59.3386 91.823 62.2807 91.4499 62.7803 91.3871C63.1248 91.3449 63.3521 91.2317 63.5424 91.2083C63.6917 91.1902 63.7225 91.3045 63.8749 91.2864C63.9221 91.2804 64.3105 91.1283 64.7115 91.0789C65.0906 91.033 66.5403 90.9397 66.7068 90.9179C66.8152 90.9038 66.6854 90.8372 67.006 90.7961C67.2981 90.7589 67.5043 90.8401 67.6709 90.8191C68.0574 90.7701 68.4763 90.6195 68.8854 90.5622C70.0615 90.397 70.0196 90.5368 70.0909 90.5313C70.2882 90.5155 70.3493 90.3828 70.4131 90.3711C70.6828 90.3223 71.3437 90.2038 71.5842 90.1637C71.8838 90.1139 72.028 90.2106 72.3472 90.1638C72.5851 90.1284 73.0479 89.9446 73.589 89.8568C74.8089 89.6587 76.2589 89.4082 77.4646 89.2152C77.8242 89.1578 77.8964 89.2539 78.0067 89.2387C78.5862 89.1587 78.89 88.9881 79.0548 88.9626C80.2312 88.7803 82.3549 88.6163 83.4476 88.4488C83.8925 88.3808 85.8212 87.9687 86.9201 87.7981C87.0458 87.7785 86.9423 87.8806 87.0797 87.8441C87.4084 87.7567 87.349 87.5944 87.5192 87.5707C87.6014 87.5599 87.8038 87.6227 88.0435 87.5918C89.2863 87.4311 90.123 87.2132 90.6871 87.1225C96.1055 86.2511 101.636 85.3557 106.709 84.5522C107.274 84.4625 107.96 84.2499 108.829 84.211C108.864 84.259 108.898 84.307 108.933 84.3549C108.955 84.2989 108.976 84.2429 108.998 84.1869C109.961 84.0058 110.316 83.8822 111.315 83.7934C111.401 83.7856 111.698 83.9835 111.813 83.6627C112.826 83.7256 112.255 83.5924 112.979 83.4608C113.704 83.3295 114.421 83.2885 115.129 83.1978C115.532 83.2458 113.946 83.7343 113.84 83.75C113.67 83.7749 113.47 83.6547 113.305 83.6719C112.816 83.7226 112.364 83.9118 112.235 83.7973C111.629 84.0331 112.399 83.843 112.34 83.9802C111.914 83.9931 111.487 84.0063 111.06 84.0199C110.913 84.4776 108.514 84.2885 108.726 84.5872C108.532 84.5516 108.337 84.5162 108.143 84.4808C107.402 85.0158 106.883 84.806 105.788 84.8598C105.874 84.8991 105.96 84.9385 106.046 84.9778C106.027 85.0029 105.093 85.2403 105.396 84.964C104.471 85.4139 104.433 84.9228 103.619 85.4163C103.109 85.5465 103.387 85.2916 102.461 85.4483C101.913 85.5412 101.249 85.7607 100.638 85.8705C100.497 85.8955 100.416 85.788 100.29 85.809C100.164 85.83 100.122 85.9557 99.9708 85.9841C99.6576 86.0429 99.2366 86.0303 99.0415 86.0711C98.8667 86.1073 98.6322 86.2513 98.2109 86.3387C96.7396 86.6448 97.1625 86.4243 96.9203 86.4145C96.6602 86.4047 96.5119 86.6267 96.0074 86.6893C95.9567 86.6954 96.0665 86.5541 95.904 86.5864C95.7729 86.6124 95.7286 86.7533 95.2965 86.8514C95.1243 86.8905 92.4332 87.3762 92.0231 87.4484C91.3944 87.5589 89.9741 87.6875 89.3231 87.7989C89.0722 87.8415 88.8218 87.9912 88.5551 88.0357C87.6714 88.1833 86.256 88.414 85.1352 88.5977C84.1257 88.7632 82.3173 88.8296 81.7999 89.1289C80.3887 89.3915 80.0156 89.2702 79.9085 89.2855C79.6188 89.3265 79.5045 89.4661 79.1414 89.5315C74.4353 90.3941 68.2323 91.2086 63.749 91.7794C53.3593 93.1208 42.8575 94.1737 32.3541 95.1531C32.3311 95.2085 32.3081 95.2638 32.2852 95.3191C33.5293 95.2314 34.9963 95.1807 36.2229 95.0822C37.8606 94.9505 40.2634 94.4946 41.4973 94.7354C41.0144 94.8149 40.2088 94.7549 40.2411 94.9383C41.1116 94.8661 41.9818 94.7936 42.852 94.7205C42.8176 94.6378 42.7832 94.555 42.7488 94.4723C43.6534 94.3574 44.5829 94.2833 45.4915 94.1792C45.6493 94.1612 45.5296 94.0951 45.6672 94.0808C45.8211 94.065 45.7247 94.1543 45.7536 94.152C46.1429 94.1134 46.2523 94.0217 46.2999 94.0181C46.422 94.0088 46.335 94.0944 46.6884 94.0799C47.344 94.0532 47.7897 93.8036 47.6712 94.1551C47.8816 94.1335 48.0919 94.1119 48.3023 94.0901C48.3473 93.9931 48.3923 93.8961 48.4373 93.799C49.7691 94.0341 50.2973 93.3237 51.066 93.7616C51.2933 93.6581 51.5205 93.5546 51.7476 93.451C51.8901 93.5282 52.0327 93.6053 52.1753 93.6824C52.1927 93.6012 52.2102 93.52 52.2276 93.4388C53.5027 93.3602 54.8429 93.1175 56.0563 92.9897C56.9015 92.9006 57.1073 92.9083 57.8545 92.8161C59.516 92.6093 57.8823 92.9577 59.2844 92.9632C59.2011 92.8757 59.1178 92.7881 59.0346 92.7006C59.2593 92.6384 59.4839 92.5762 59.7084 92.5138C59.877 92.5732 60.0456 92.6325 60.2142 92.6917C60.8719 92.201 61.3687 92.4728 61.465 92.4611C61.5427 92.4508 61.7793 92.1743 62.6403 92.2775C62.2523 91.9865 63.2772 92.196 63.3563 92.1878C63.4314 92.1799 64.3791 91.9839 64.7679 91.9367C65.0737 91.8998 65.7346 91.8868 66.1889 91.8231C66.59 91.7669 66.5342 91.6588 66.5633 91.6538C67.0561 91.5785 66.7583 91.7079 67.116 91.6643C67.4737 91.6206 67.7375 91.4864 67.8157 91.4846C67.8551 91.4839 67.7399 91.6071 67.9187 91.5931C68.3992 91.5561 69.248 91.3445 69.7934 91.2702C69.9867 91.2438 70.243 91.2987 70.4586 91.2707C70.789 91.2275 70.926 91.0865 71.1181 91.0624C71.1849 91.0543 71.6369 91.1763 72.1611 91.0703C72.261 91.0498 72.4977 90.6185 72.9722 91.1093C72.9908 91.0275 73.0094 90.9457 73.028 90.8638C74.7676 90.4064 75.3595 90.9538 76.0579 90.2728C77.3532 90.1297 76.5059 90.4873 76.6523 90.498C76.7469 90.5044 77.1566 90.3771 77.2032 90.3729C77.2859 90.3663 77.2832 90.4381 77.3726 90.4232C79.0115 90.1429 78.2614 90.1301 78.7673 89.9619C79.9699 89.561 81.0056 89.8418 78.8357 90.0633C78.842 90.1021 78.8484 90.1409 78.8547 90.1797C79.3777 90.056 80.7232 89.8517 80.3073 90.1226C79.98 90.3368 76.776 90.7572 78.6167 90.6795C79.0347 90.6615 79.223 90.4812 79.9775 90.6372C80.4493 90.5745 80.4586 90.2097 81.1174 90.2463C80.9925 90.1403 80.8677 90.0342 80.7429 89.9281C81.5823 89.6239 82.6864 89.6613 83.34 89.4807C83.5622 89.4193 84.2777 88.6947 84.1866 89.3143C84.5604 89.214 86.3686 89.0204 86.6923 88.9113C86.7701 88.885 86.8213 88.5547 87.9972 88.4677C88.0843 88.4933 88.1713 88.5189 88.2584 88.5444C87.2191 88.8379 89.1083 88.6367 88.651 89.0197C88.4557 88.9156 87.6024 88.9765 87.4559 88.9323C87.2057 88.8558 87.8674 88.5906 86.9988 88.7794C86.5309 89.3691 88.0703 88.8735 87.9091 89.3855C89.0214 88.9707 89.1719 89.1609 89.4336 89.1254C90.5521 88.972 91.2438 88.8029 92.3028 88.6794C92.5421 88.5392 90.6181 88.7226 90.3898 88.8043C91.1977 88.3141 89.7042 88.552 89.1096 88.8626C89.0392 88.7679 88.9688 88.6731 88.8984 88.5784C89.7269 88.4956 90.5308 88.3886 91.3276 88.1656C91.387 88.1954 91.4464 88.2252 91.5058 88.255C91.3338 88.3443 91.1617 88.4336 90.9897 88.5229C91.6806 88.5038 91.2246 88.2703 92.1685 88.3823C92.1765 88.2608 92.1845 88.1393 92.1925 88.0179C93.0611 87.9101 93.9297 87.8023 94.7984 87.6948C95.2074 87.3844 96.8814 87.1908 96.6289 87.5454C97.3022 87.4535 96.4481 87.432 97.0633 87.2521C97.3311 87.174 97.8635 87.0749 98.0091 87.1342C98.0009 87.4325 97.2081 87.6031 96.9999 87.8422C97.1572 87.8807 100.838 87.0502 100.563 87.4439C100.867 87.4349 100.701 87.2837 101.229 87.1499C102.708 86.7752 105.088 86.7368 106.227 86.1094C104.768 86.0998 104.39 86.4235 103.305 86.6129C102.611 86.7328 98.3859 87.4819 99.2799 87.0185C99.131 87.0834 98.9821 87.1483 98.8332 87.2132C98.6608 87.1488 98.4884 87.0843 98.316 87.02C98.7565 86.9323 99.1972 86.8448 99.6378 86.7575C99.7587 86.8304 99.8797 86.9033 100.001 86.9762C100.038 86.9034 100.076 86.8305 100.114 86.7576C100.299 86.7135 100.483 86.6695 100.667 86.6255C100.628 86.712 100.589 86.7986 100.549 86.8851C100.839 86.8504 101.128 86.8157 101.418 86.7812C101.323 86.6901 101.229 86.5991 101.134 86.508C102.483 86.2564 102.036 86.3979 102.819 86.468C103.383 86.3952 102.403 86.3517 103.581 86.1051C104.951 85.8193 104.098 86.285 105.874 85.9256C105.891 85.8695 105.909 85.8135 105.926 85.7574C106.327 85.7454 106.729 85.7336 107.13 85.7221C107.068 85.666 107.006 85.6098 106.943 85.5537C107.759 85.4475 108.858 85.1458 109.167 85.3565C108.325 85.3654 108.404 85.8066 108.631 85.8537C109.098 85.9445 115.599 84.7781 116.866 84.5889C118.484 84.3369 119.728 84.3043 121.179 83.8805C120.15 83.8376 116.642 84.4937 115.956 84.4716C115.888 84.4693 115.846 84.0604 115.489 84.5807C114.107 84.7079 112.489 85.0873 110.777 85.3421C110.811 85.2172 110.844 85.0922 110.878 84.9673C111.969 85.051 112.858 84.356 112.791 84.8309C113.001 84.7987 113.21 84.7666 113.419 84.7346C113.407 84.6564 113.396 84.5782 113.384 84.5C113.699 84.4518 114.015 84.4038 114.331 84.356C114.343 84.4342 114.355 84.5124 114.367 84.5906C114.628 84.5511 114.89 84.5117 115.151 84.4725C115.167 84.3904 115.182 84.3083 115.198 84.2262C116.005 84.2695 118.615 83.4466 117.508 84.0839C117.876 84.0302 118.244 83.9769 118.613 83.924C118.603 83.867 118.594 83.8099 118.584 83.7528C118.742 83.7224 118.899 83.692 119.056 83.6617C119.012 83.721 118.967 83.7802 118.922 83.8395C119.635 83.6428 120.361 83.8191 120.813 83.5734C120.493 83.578 120.173 83.5829 119.853 83.5881C120.467 83.5771 121.557 83.2692 121.657 83.2553C121.96 83.2129 122.136 83.3069 122.465 83.2682C122.762 83.233 122.709 83.1496 122.765 83.1453C124.379 83.021 123.831 83.5856 124.504 82.9162C124.594 82.9837 124.684 83.0513 124.774 83.1189C124.871 83.04 124.968 82.9612 125.066 82.8824C125.54 82.8271 126.014 82.7728 126.488 82.7191C126.318 82.6415 126.148 82.564 125.977 82.4866C126.682 82.3528 127.037 82.5075 127.107 82.5033C127.303 82.4905 127.377 82.3567 127.437 82.349C130.332 82.0062 128.589 82.3283 130.088 82.6183C130.582 82.3771 130.04 82.2563 129.945 82.0807C130.641 82.0869 130.849 82.0112 131.575 81.9394C131.764 81.921 131.978 81.9978 132.097 81.9859C132.2 81.9756 132.511 81.8342 132.758 81.8067C133.171 81.7608 133.727 81.7646 134.292 81.7038C134.761 81.6525 136.193 81.4305 137.199 81.3338C137.628 81.2928 137.537 81.391 137.648 81.3807C137.694 81.3763 138.018 81.2386 138.294 81.2128C140.538 81.0041 142.844 80.8755 145.113 80.7401C146.71 80.6438 148.331 80.4862 149.935 80.4484C150.276 80.4406 150.098 80.5239 150.247 80.5226C150.298 80.522 150.356 80.3832 150.885 80.4256C151.076 80.4411 150.859 80.5415 151.046 80.542C151.138 80.5424 151.174 80.4212 151.707 80.3841C152.675 80.3171 153.198 80.4743 153.284 80.4685C153.447 80.4581 153.399 80.3593 153.615 80.3544C154.673 80.331 155.556 80.318 156.5 80.3211C156.941 80.3159 159.981 80.3721 160.147 80.4017C160.519 80.4548 160.164 80.6485 160.642 80.6596C160.778 80.6124 160.914 80.5655 161.05 80.5187C160.839 80.4702 160.628 80.4221 160.416 80.3744C161 80.4625 161.668 80.3975 162.103 80.4221C162.183 80.4264 162.918 80.557 163.295 80.5681C163.133 80.598 162.971 80.6282 162.808 80.6586C162.863 80.6947 162.918 80.7308 162.973 80.7669C163.727 80.7576 164.518 80.8031 165.302 80.8758C165.584 80.902 165.481 80.9738 165.766 81.0025C167.412 81.1876 167.06 80.8028 168.542 81.67C168.02 81.5115 166.061 81.3559 165.782 81.3181C165.588 81.2837 164.858 80.6922 165.099 81.2583C163.522 81.1413 164.907 80.9337 163.437 80.9113C163.462 80.9793 163.488 81.0474 163.513 81.1155C162.999 81.1282 162.619 81.1424 162.314 81.0097C162.193 81.3255 160.464 81.058 159.509 81.0522C158.129 81.0391 156.57 81.0904 155.205 81.0991C154.735 81.102 154.468 80.9761 154.409 80.9765C154.323 80.9775 154.08 81.0887 153.908 81.0902C153.266 81.0931 151.305 80.9348 150.826 81.2564C154.647 81.1662 158.472 81.2143 162.291 81.4027C161.817 81.2201 165.688 81.4315 165.886 81.4836C166.066 81.5079 165.903 81.5987 165.957 81.6104C166.354 81.6949 166.713 81.5819 166.841 81.5972C166.938 81.6089 167.127 81.7036 167.471 81.7488C167.534 81.7571 167.562 81.684 167.631 81.6934C168.081 81.7568 168.526 81.8291 168.976 81.9111C169.003 81.9169 169.097 82.0475 169.209 82.0694C169.323 82.0912 169.456 82.0044 169.485 82.0099C169.845 82.0818 170.441 82.2918 170.777 82.3796C170.894 82.4096 170.833 82.3095 170.965 82.3445C171.367 82.4541 171.193 82.57 171.697 82.6744C171.866 82.7107 171.891 82.5891 172.202 82.705C172.422 82.7882 172.329 82.9879 172.362 83.0069C172.406 83.0289 173.225 83.1351 173.418 83.3676C172.749 83.5109 173.99 83.6166 174 83.4543C174.279 83.616 174.554 83.7837 174.824 83.9572C174.94 83.9678 175.055 83.9796 175.171 83.9921C176.239 84.7357 176.962 85.0497 177.967 85.8218C178.019 85.8513 178.81 86.5781 178.727 86.5967C178.186 86.2547 177.664 85.9138 177.43 85.5369C176.681 85.4563 176.832 85.2111 175.873 84.7171C175.551 84.5567 175.483 84.6289 175.446 84.6103C174.203 83.9742 172.112 83.2515 171.268 82.7543C170.995 82.7525 171.898 83.0438 171.529 82.9924C171.347 82.8774 166.585 82.0884 168.156 82.0455C167.994 82.0289 167.834 82.0136 167.673 81.9994C167.471 82.2674 166.694 82.1013 166.817 81.8202C166.735 81.8712 166.652 81.9223 166.57 81.9738C166.415 82.0076 166.238 82.0157 165.989 82.0071C165.048 81.9316 159.403 81.5825 159.101 81.632C159.092 81.7017 159.083 81.7714 159.074 81.8411C161.559 82.0034 164.009 81.8976 166.666 82.399C166.596 82.3248 166.525 82.2506 166.454 82.1767C167.519 82.3875 168.57 82.6399 169.594 82.9519C168.465 82.8239 166.681 82.6767 165.501 82.4795C165.291 82.4434 165.454 82.366 165.406 82.3507C165.283 82.3112 165.132 82.4563 164.677 82.438C164.222 82.4179 163.067 82.2409 162.961 82.2388C162.756 82.234 162.196 82.3871 161.848 82.3688C161.391 82.3445 161.703 82.2463 161.611 82.2398C161.231 82.2115 160.888 82.2532 160.591 82.2334C160.15 82.2033 159.237 81.9759 158.92 82.258C159.235 82.2801 159.55 82.3031 159.865 82.3271C158.152 82.3741 156.818 81.9784 155.129 82.2572C154.745 82.6072 156.135 82.5653 154.96 82.7107C155.173 82.7062 155.386 82.7021 155.6 82.6985C155.65 82.6253 155.701 82.552 155.752 82.4788C156.119 82.5342 156.486 82.5909 156.853 82.6488C156.749 82.5817 156.645 82.5147 156.541 82.4477C157.846 82.414 159.167 82.3853 159.611 82.753C159.64 82.6686 159.67 82.5843 159.699 82.4999C160.906 82.6408 162.739 82.3712 162.376 82.8283C162.434 82.8061 162.493 82.7839 162.551 82.7617C163.275 82.8968 162.975 82.6848 163.251 82.6778C163.331 82.6743 164.743 82.8641 164.107 82.9647C165.468 83.1657 165.075 82.6996 165.453 82.7108C166.308 82.9997 167.896 82.887 167.199 83.1425C167.325 83.1725 167.452 83.2034 167.577 83.2348C168.036 83.0257 168.403 83.3989 168.828 83.5844C168.978 83.619 169.127 83.6548 169.276 83.6919C169.395 83.6227 169.514 83.554 169.636 83.4865C170.94 84.2367 170.806 82.988 171.168 84.1306C171.053 84.1598 170.939 84.1898 170.826 84.2206C170.587 84.1839 170.348 84.1511 170.109 84.1219C171.041 84.3773 171.948 84.688 172.821 85.0616C173.825 85.7716 174.57 85.7904 175.604 86.6656C175.723 86.7069 175.843 86.7498 175.963 86.7942C175.731 86.9179 175.358 86.6376 176.041 87.1965C176.015 87.3708 175.512 87.0709 175.339 86.8265C175.298 86.7665 175.845 86.9501 175.303 86.6218C174.933 86.4079 175.518 86.9429 174.43 86.2732C174.454 86.3299 174.477 86.3866 174.5 86.4434C174.379 86.3779 174.257 86.3135 174.135 86.2507C174.067 86.1144 173.996 85.9785 173.924 85.8427C173.578 85.8257 173.347 85.9126 172.696 85.606C172.899 85.6268 172.722 85.3548 172.382 85.2305C172.359 85.2922 172.335 85.3538 172.312 85.4155C171.484 85.1604 171.826 85.0756 171.088 85.0028C171.034 84.9317 170.979 84.8607 170.923 84.7901C170.482 84.8744 169.025 84.6902 169.353 84.435C168.882 84.6515 168.055 84.3586 167.763 84.0616C167.728 84.1223 167.693 84.1831 167.658 84.2439C167.483 84.2305 167.307 84.2186 167.131 84.208C167.039 84.1556 166.947 84.1035 166.853 84.0518C166.723 84.075 166.595 84.0992 166.466 84.1239C166.398 84.0499 166.329 83.976 166.261 83.9024C166.052 83.9583 165.84 84.0155 165.631 84.0745C165.513 84.0105 165.392 83.9468 165.274 83.8839C165.251 84.0165 164.025 83.9536 163.662 83.8459C163.553 83.8793 163.444 83.9128 163.336 83.9465C163.287 83.8785 163.239 83.8105 163.191 83.7425C163.109 83.7901 163.027 83.8378 162.945 83.8856C162.767 83.8236 162.588 83.762 162.41 83.7008C161.655 83.9827 161.644 83.7031 161.474 83.6972C161.16 83.6859 160.083 83.8441 159.905 83.8285C159.727 83.812 159.644 83.6946 159.5 83.6792C157.128 83.4304 158.097 83.7701 157.62 83.8068C157.362 83.8283 157.182 83.7182 156.955 83.7265C156.565 83.7373 154.603 83.8668 154.49 83.8554C154.326 83.8356 154.713 83.3307 154.177 83.4615C154.16 83.7316 153.016 83.4653 153.552 83.8395C153.082 83.8093 152.611 83.7814 152.14 83.7555C152.198 84.0757 151.615 83.8777 150.984 83.9102C150.089 83.9523 148.085 84.2383 148.145 83.908C147.934 83.9925 147.723 84.0773 147.513 84.1626C146.044 84.1255 144.609 84.3198 143.167 84.4298C138.831 84.7694 134.131 85.1744 129.812 85.6223C129.604 85.6437 129.621 85.5334 129.472 85.5488C128.686 85.6297 126.659 85.9574 125.559 86.0771C125.206 86.1151 125.021 86.0335 124.909 86.0433C124.529 86.0761 124.636 86.2015 124.461 86.2205C124.186 86.25 122.715 86.3178 122.212 86.3737C121.964 86.401 121.685 86.5503 121.391 86.557C121.365 86.5577 121.396 86.4392 121.374 86.4401C120.844 86.5 121.175 86.5527 120.996 86.5725C119.715 86.7142 118.351 86.9076 116.964 87.0886C116.62 87.1334 116.082 87.1326 115.786 87.1693C115.673 87.1835 115.888 87.2382 115.498 87.2894C115.364 87.307 115.302 87.2034 115.151 87.2188C114.498 87.2864 114.336 87.6743 113.735 87.4739C112.664 87.6564 110.808 88.0394 109.829 88.1971C109.597 88.2342 109.474 88.187 109.253 88.2233C109.096 88.2491 108.837 88.394 108.592 88.4344C108.348 88.4747 107.947 88.4405 107.477 88.5199C106.982 88.6034 106.376 88.7605 106.264 88.7783C106.129 88.8002 106.047 88.6891 105.912 88.7126C105.505 88.7829 104.433 89.081 103.91 89.1807C103.348 89.2874 103 89.2848 102.807 89.3179C102.629 89.3492 102.438 89.4861 102.356 89.5006C102.229 89.5232 102.18 89.4086 102.019 89.4364C101.756 89.4822 101.497 89.6027 101.102 89.6706C93.9966 90.8962 87.0109 92.0442 80.0494 93.1011C79.2737 93.2187 78.8503 93.3746 77.7035 93.5217C77.2376 93.5812 77.4128 93.4261 77.0557 93.5075C76.8965 93.5438 76.9529 93.6345 76.75 93.6716C75.8533 93.8357 74.7872 93.9073 74.396 93.9683C74.2408 93.9924 74.0802 94.1299 73.7618 94.1795C71.3874 94.5503 68.5793 94.9122 66.0262 95.265C64.6747 95.4528 62.633 95.767 61.0801 95.9612C56.79 96.5008 52.1678 96.9744 48.2549 97.3878C42.3464 98.0122 36.4785 98.6733 30.5839 99.1315C33.3624 99.129 37.1109 98.7433 40.1833 98.4714C49.0567 97.6859 58.5021 96.5647 67.596 95.3475C70.7565 94.927 74.7615 94.3359 78.2092 93.8327C78.3654 93.8101 78.6744 93.6726 79.0126 93.6265C79.0845 93.617 79.9969 93.6261 80.2961 93.5783C79.9676 93.3501 81.179 93.4019 81.54 93.335C81.9952 93.2507 82.9248 92.9549 84.0052 92.8537C84.9855 92.7616 84.7361 92.912 84.7907 92.9097C85.1404 92.8949 85.2312 92.7045 85.4906 92.6431C86.5516 92.395 92.0765 91.5583 93.6129 91.3033C94.0101 91.2374 94.0397 91.3438 94.1292 91.3289C94.3661 91.2894 94.685 91.1253 95.0645 91.0616C95.7486 90.9471 96.5535 90.9158 96.9299 90.8525C97.8301 90.7013 99.5174 90.2927 100.686 90.0948C101.015 90.039 101.014 90.1551 101.163 90.1299C101.818 90.0182 103.502 89.6018 104.315 89.467C105.636 89.2476 107.007 89.0992 108.343 88.8466C108.437 88.8833 108.53 88.9199 108.623 88.9567C108.749 88.8823 108.874 88.808 109 88.7338C111.277 88.4115 113.571 87.9388 115.831 87.6084C116.091 87.5699 117.394 87.4758 117.609 87.4451C117.788 87.4189 117.945 87.2683 118.213 87.2482C118.588 87.2199 118.273 87.5083 118.869 87.3528C119.03 87.3109 118.857 87.2317 119.18 87.1529C119.287 87.1259 121.381 86.7883 121.495 86.7806C121.685 86.7664 121.883 86.9618 121.932 86.9598C122.188 86.9497 122.154 86.7835 122.321 86.745C122.815 86.6307 123.483 86.6556 123.564 86.6423C124.541 86.4788 126.36 86.1063 127.402 86.0576C127.546 86.0508 127.544 86.178 127.57 86.179C127.735 86.1848 127.817 86.0299 127.971 86.0076C128.796 85.889 130.103 85.8298 130.937 85.7583C131.033 85.7499 131.228 85.658 131.4 85.6451C132.372 85.5735 132.07 85.7198 132.125 85.7181C132.257 85.7152 132.472 85.5681 132.818 85.5223C133.709 85.4028 135.426 85.2395 136.384 85.1546C137.101 85.0909 137.103 85.2319 137.151 85.23C137.251 85.2252 137.52 85.0868 137.99 85.0295C138.895 84.9194 138.802 85.0392 139.175 85.0003C139.207 84.9975 139.142 84.8951 139.557 84.8468C140.355 84.7532 142.179 84.7045 143.026 84.6376C143.352 84.6114 143.421 84.5025 143.755 84.477C144.284 84.4354 145.495 84.4736 145.589 84.4686C145.615 84.4671 145.668 84.3445 145.824 84.3357C145.996 84.326 146.168 84.3781 146.297 84.3709C147.026 84.3291 148.275 84.0676 147.943 84.5082C148.172 84.3931 148.402 84.2786 148.632 84.1646C150.163 84.1273 151.648 84.0503 153.165 84.0153C153.507 84.0075 153.792 84.0866 154.08 84.0818C154.367 84.0757 155.638 83.9461 155.851 83.9466C156.23 83.9419 158.384 83.9666 158.652 83.9864C159.175 84.0184 159.676 84.2111 159.89 84.1841C160.061 84.1624 159.907 84.0575 160.233 84.0413C160.799 84.0127 161.751 84.1829 161.922 84.1896C161.995 84.1925 161.862 84.1076 162.548 84.137C162.917 84.1531 163.112 84.2495 163.247 84.2567C163.289 84.2589 163.234 84.1159 163.969 84.1792C164.471 84.224 164.667 84.3475 164.718 84.3516C164.793 84.3582 164.987 84.2587 165.291 84.2896C166.014 84.3593 167.292 84.6468 167.942 84.7695C168.068 84.7931 168.05 84.6471 168.551 84.752C168.909 84.8291 168.823 84.9253 168.956 84.9563C169.165 85.0061 169.507 84.9405 169.965 85.0584C170.596 85.1121 174.521 86.8547 174.643 87.083C174.761 87.1768 174.908 87.2648 174.941 87.3533C174.858 87.3703 174.776 87.388 174.693 87.4063C174.23 86.9133 174.344 87.2434 174.188 87.1742C173.965 87.0714 173.141 86.6396 172.913 86.6011C172.833 86.5866 172.951 86.7671 172.535 86.6596C172.09 86.5478 171.972 86.2766 171.7 86.4918C171.198 85.9616 170.485 86.1129 171.174 86.4293C171.605 86.5241 175.162 88.385 175.754 88.9618C176.43 89.446 176.843 89.7766 177.089 90.2159C177.233 90.4465 177.409 91.0422 177.24 91.0545C177.269 91.2675 177.371 91.0107 177.402 91.0495C177.488 91.13 177.44 91.8821 177.412 92.0394C177.425 92.6897 176.991 94.2592 176.272 95.2021C176.26 95.1348 176.247 95.0678 176.234 95.0009C176.29 94.747 176.882 93.6581 176.728 93.4715C176.097 95.1184 175.209 96.6124 174.094 97.7731C174.258 97.9008 172.765 99.2048 172.604 99.1762C172.588 99.0855 172.57 98.9957 172.552 98.9067C173.578 98.5312 173.264 98.2243 173.948 97.8698C174.165 97.6514 174 97.6223 174.083 97.4952C174.865 96.1928 174.333 97.6833 174.961 96.6805C174.591 96.8448 175.1 96.0358 175.297 95.6453C175.353 95.5701 176.022 94.4207 176.077 94.2601C176.49 93.3298 176.74 92.2003 176.813 91.8048C176.828 91.4434 176.653 91.2999 176.547 91.0719C176.46 90.9004 176.569 90.9155 176.531 90.8276C176.441 90.6369 176.156 90.7605 176.42 90.3969C176.282 90.2961 176.132 90.2016 175.963 90.1104C176.009 90.0634 176.055 90.0164 176.102 89.9694C176.002 89.873 175.964 89.8385 175.854 89.747C175.781 89.7719 175.706 89.7952 175.625 89.8158C175.129 89.3373 175.437 89.3727 175.442 89.1458C175.322 89.0464 175.21 88.9546 175.099 88.866C174.928 88.924 174.762 88.9865 174.593 89.0487C174.055 88.6917 173.5 88.3674 172.929 88.0782C172.92 88.0011 172.911 87.9239 172.901 87.8466C172.872 87.9053 172.843 87.964 172.813 88.0228C171.828 87.5703 170.793 87.2175 169.694 86.9473C169.387 86.9652 171.073 87.5352 171.182 87.6004C171.872 87.8507 173.637 88.6051 173.518 88.8276C174.01 88.8874 175.077 89.6254 175.343 90.0967C174.77 89.6586 174.32 89.351 173.763 89.0125C173.741 89.0906 173.719 89.1686 173.697 89.2464C173.18 88.5879 173.047 88.5379 172.201 88.4793C172.243 88.3829 172.285 88.2866 172.327 88.1902C171.677 88.2917 170.945 87.3758 170.767 87.7964C170.49 87.6657 170.206 87.5412 169.915 87.4226C169.232 87.3176 170.247 87.8286 167.592 87.1877C167.405 87.1473 167.463 87.0395 167.173 87.0032C167.088 86.9941 166.596 87.0815 165.652 86.965C165.504 86.947 165.503 86.8466 165.349 86.8191C164.989 86.753 164.273 86.8965 164.618 86.6007C163.169 86.4016 163.73 86.7113 163.252 86.7862C162.926 86.8374 163.002 86.6511 162.722 86.6791C162.377 86.715 162.624 86.9154 161.26 86.7645C161.414 86.7583 161.569 86.7523 161.723 86.7465C161.648 86.6908 161.573 86.6352 161.498 86.5796C160.709 86.6694 160.791 86.4911 160.41 86.7691C159.846 86.6168 159.353 86.5891 158.574 86.592C157.059 86.6025 157.831 86.9312 156.109 86.4838C155.829 86.5406 155.548 86.5982 155.268 86.6565C154.809 86.5294 155.182 86.3729 154.494 86.3408C155.032 86.6502 153.582 86.539 153.339 86.8188C153.313 86.7532 153.287 86.6876 153.261 86.6219C153.108 86.6232 152.954 86.6248 152.801 86.6265C152.801 86.6793 152.801 86.7322 152.801 86.785C152.597 86.7478 152.392 86.711 152.187 86.6746C152.035 86.7293 151.882 86.7843 151.73 86.8395C151.476 86.7338 151.221 86.6287 150.966 86.5242C150.807 86.5204 150.648 86.5168 150.489 86.5135C150.541 86.5908 150.594 86.6681 150.646 86.7454C150.442 86.7244 150.237 86.7037 150.033 86.6835C150.274 86.8057 150.129 86.9601 149.496 86.9768C148.974 86.9919 149.553 86.7 148.433 86.8552C148.355 86.8669 148.224 87.0613 147.165 87.1414C145.896 87.2408 146.506 87.0716 146.279 87.0785C146.234 87.0801 145.851 87.1978 145.489 87.2334C145.283 87.2536 145.08 87.1881 145.052 87.19C144.925 87.2015 144.895 87.314 144.719 87.3293C144.271 87.3677 143.675 87.355 143.239 87.3932C143.04 87.4103 142.857 87.49 142.768 87.4977C142.629 87.5093 142.444 87.4237 142.303 87.4355C141.775 87.48 141.003 87.878 140.721 87.4404C140.252 87.9054 139.154 87.4907 139.257 87.7667C137.908 87.7771 134.368 88.491 134.421 88.0085C133.703 88.4955 133.739 88.1949 133.421 88.2358C133.065 88.2816 133.258 88.3399 132.975 88.3677C132.312 88.4328 131.675 88.4709 131.016 88.546C131.112 88.469 131.208 88.3921 131.304 88.3152C130.61 88.3746 130.866 88.4978 130.163 88.6103C128.872 88.8183 129.404 88.6329 129.192 88.4857C129.263 88.6432 127.729 88.8059 127.571 88.8045C127.476 88.8031 127.857 88.5398 126.928 88.7267C126.987 88.7852 127.047 88.8438 127.106 88.9024C126.668 88.8671 125.522 89.13 125.322 89.1342C125.23 89.1358 124.677 88.6748 124.289 89.1489C124.227 89.091 124.165 89.0331 124.103 88.9753C123.621 89.1192 123.14 89.2639 122.659 89.4094C122.565 89.3031 122.47 89.1968 122.375 89.0905C122.219 89.1119 122.063 89.1335 121.907 89.1551C122.025 89.2447 122.143 89.3343 122.261 89.424C121.29 89.5095 120.137 89.8405 119.888 89.5187C119.69 89.6131 119.493 89.7077 119.296 89.8023C119.145 89.7051 118.994 89.608 118.842 89.511C117.89 89.6791 117.885 89.7597 117.25 89.9802C117.262 89.8855 117.274 89.7908 117.286 89.6961C116.823 89.8949 115.96 90.1449 115.266 90.2663C114.936 90.3237 114.349 90.2851 114.272 90.3084C114.195 90.3323 113.494 90.9432 113.345 90.5306C112.231 90.8956 111.698 90.7824 111.234 90.86C110.933 90.9105 110.812 91.0343 110.473 91.0988C109.989 91.1911 109.49 91.22 109.21 91.272C109.05 91.3021 109.036 91.4064 108.925 91.4273C108.403 91.5267 108.694 91.3755 108.142 91.4712C108.091 91.4806 107.707 91.6672 107.249 91.7255C106.992 91.7581 106.311 91.7289 106.253 91.7388C105.995 91.7833 106.246 92.0223 105.313 91.8516C105.347 91.8993 105.381 91.947 105.415 91.9947C104.346 92.3054 104.135 92.103 103.912 92.1234C103.884 92.1267 103.633 92.2601 103.471 92.2742C103.199 92.2976 103.071 92.1932 103.01 92.1977C102.797 92.2138 102.1 92.3851 101.619 92.344C101.774 92.6759 100.177 93.0705 99.7524 92.7368C99.479 92.8627 99.2055 92.9888 98.9321 93.1148C98.7916 93.0718 98.651 93.0287 98.5104 92.9857C98.4425 93.0637 98.3746 93.1417 98.3066 93.2197C97.8649 93.1477 97.423 93.076 96.981 93.0043C96.9786 93.1514 96.9761 93.2986 96.9737 93.4458C96.8539 93.4494 96.7342 93.453 96.6145 93.4566C96.5039 93.3587 96.3933 93.2608 96.2827 93.1629C96.1401 93.2094 95.9975 93.2558 95.8549 93.3023C95.8326 93.3904 95.8103 93.4786 95.788 93.5668C95.0175 93.7949 95.289 92.9437 93.9067 93.8863C93.6625 93.8613 93.4182 93.8363 93.1739 93.8113C92.9639 94.1709 92.4376 94.0642 92.045 94.1674C91.7683 94.2401 91.8049 94.3626 91.4225 94.4304C91.0399 94.4983 91.0332 94.3764 91.0033 94.3806C90.6897 94.4264 90.4721 94.5718 90.2393 94.5897C90.2042 94.5925 90.0936 94.4651 89.8 94.5057C89.5063 94.5463 89.3558 94.7273 88.9157 94.7726C88.6901 94.796 88.6054 94.6872 88.4057 94.7102C87.454 94.8184 86.6057 95.585 85.7766 94.9852C85.6324 95.1032 84.5281 95.6166 84.0285 95.6813C83.2516 95.7811 83.5255 95.5903 83.2141 95.6157C83.1693 95.6191 82.9421 95.7061 82.2923 95.8053C82.1761 95.823 82.2162 95.8982 82.1997 95.902C81.4435 96.0261 79.9658 96.2052 79.1351 96.3291C79.0605 96.3401 78.7106 96.6255 78.0026 96.4336C77.06 96.8135 75.1294 96.6295 73.8724 97.1573C73.6923 97.1915 73.4605 97.1445 73.3808 97.1591C72.6945 97.2853 72.9805 97.4925 71.375 97.3615C71.5185 97.4669 71.1705 97.6306 70.6551 97.6936C69.8802 97.7881 70.397 97.481 69.7787 97.5863C69.7877 97.6513 69.7967 97.7162 69.8058 97.7812C68.3528 97.8037 68.1067 98.1199 66.6727 98.3107C66.157 98.379 65.3766 98.333 65.2537 98.3483C65.2062 98.3549 64.6624 98.5837 64.6087 98.5916C64.306 98.6348 64.1256 98.584 63.8638 98.6164C62.9985 98.7235 61.9914 99.0534 62.1329 98.6597C61.9047 98.767 61.6764 98.8741 61.448 98.9811C60.5023 98.6933 59.8958 99.3181 59.6622 98.9554C59.511 99.0538 59.3597 99.152 59.2084 99.2502C55.3521 99.6593 51.5007 100.03 47.6565 100.382C47.5165 100.522 45.8377 100.648 45.7501 100.637C45.3472 100.589 45.7362 100.277 44.9384 100.42C44.8613 100.547 44.7842 100.674 44.7071 100.802C43.7005 100.941 44.1747 100.775 43.768 100.734C43.6029 100.765 43.6658 100.852 43.441 100.881C42.2214 101.039 39.7162 101.29 38.3822 101.427C38.1131 101.455 38.1454 101.365 38.0618 101.373C37.832 101.396 37.3891 101.549 36.9281 101.594C34.0769 101.871 30.0393 102.203 27.1725 102.4C26.9777 102.413 26.9434 102.313 26.8119 102.321C26.6296 102.333 26.2326 102.457 26.0409 102.467C25.8604 102.478 25.7373 102.412 25.544 102.422C24.6595 102.469 23.4907 102.722 22.5264 102.591C22.4453 102.58 21.4166 102.271 21.3914 102.246C21.2436 102.1 22.093 101.754 20.6292 101.672C21.8935 101.331 21.4538 101.01 19.763 101.012C20.5965 100.876 21.4304 100.741 22.2648 100.608C22.2615 100.565 22.2582 100.522 22.255 100.479C21.4687 100.346 20.703 100.354 19.5396 100.46C19.5715 100.416 19.6035 100.372 19.6354 100.329C20.6399 100.02 21.8745 99.8524 22.6284 99.4998C21.4603 99.4185 20.2919 99.3391 19.1231 99.2623C19.177 99.2248 19.2309 99.1872 19.2849 99.1497C19.826 99.0088 21.0227 98.8332 21.4718 98.7093C23.1872 98.2361 19.921 98.6537 20.44 98.4205C22.2841 98.2308 24.1289 98.047 25.9744 97.8668C26.0258 97.7258 18.8929 98.1051 18.9231 97.7098C19.5001 97.6208 20.0773 97.5324 20.6545 97.4446C20.3854 97.3722 20.1162 97.2999 19.847 97.2278C19.9149 97.1886 19.9827 97.1493 20.0506 97.1102C21.0213 96.9283 21.9924 96.748 22.9637 96.5691C19.9943 96.9557 18.6058 97.0519 17.8064 96.3439C17.8848 96.3151 17.9636 96.2862 18.0422 96.2574C18.7413 96.6775 21.7695 96.1936 23.3786 95.9299C23.0337 95.8196 21.6197 96.0793 21.3093 96.0246C21.2213 96.0087 21.5086 95.8775 21.3053 95.8471C20.7744 95.7677 18.5518 95.8325 18.8545 95.6355C19.0495 95.5071 22.5824 94.9886 23.2755 94.9298C21.634 94.9088 19.9565 95.0304 18.3034 94.9784C19.2966 94.5484 20.1663 94.06 22.0413 93.8469C22.5964 93.6188 18.597 93.8065 18.4943 93.7271C19.1721 93.5548 19.85 93.3833 20.528 93.2126C19.9485 93.3003 19.3691 93.3885 18.7895 93.4773C18.7843 93.4447 18.779 93.4122 18.7738 93.3797C20.2661 93.0655 21.6173 92.6414 23.345 92.4828C23.2716 92.3152 22.2405 92.4389 21.739 92.4898ZM176.398 92.0445C176.254 92.0383 176.298 91.8221 176.296 91.7144C176.27 91.7313 176.244 91.7479 176.218 91.7641C176.256 91.5268 176.213 91.1675 175.943 91.2567C175.872 91.1654 176.115 91.1207 176.124 91.0714C176.126 91.0465 175.939 90.9711 175.985 90.7387C175.962 90.7063 175.936 90.6731 175.909 90.6398C175.832 90.6902 175.755 90.7413 175.679 90.7932C175.732 90.6812 175.775 90.5608 175.809 90.434C176.304 90.9618 176.439 91.2988 176.398 92.0434C176.398 92.0438 176.398 92.0442 176.398 92.0445ZM166.299 86.7679C165.685 86.6383 164.711 86.4746 164.888 86.7424C165.283 86.7625 165.693 86.7893 166.086 86.8214C166.158 86.8034 166.228 86.7855 166.299 86.7679ZM97.0238 92.7584C96.3947 92.6137 95.8893 92.9167 94.9723 93.027C94.9823 93.0784 94.9923 93.1299 95.0022 93.1813C95.3531 92.9942 96.35 92.9098 97.0238 92.7584ZM168.387 101.303C168.266 101.324 168.145 101.343 168.022 101.363C168.405 100.94 168.551 101.102 169.048 100.895C169.078 100.883 169.046 100.826 169.056 100.822C169.177 100.773 169.316 100.805 169.423 100.763C169.631 100.682 169.772 100.545 170.121 100.402C170.389 100.292 170.439 100.403 170.531 100.359C170.616 100.321 171.213 99.6682 171.703 99.5475C172.76 99.3456 168.889 101.265 168.387 101.303ZM164.737 102.215C164.864 102.173 164.99 102.132 165.115 102.091C164.793 102.392 165.554 102.12 166.094 101.949C166.135 102.127 164.945 102.415 164.417 102.647C164.524 102.503 164.63 102.359 164.737 102.215ZM176.023 95.8522C175.839 96.1976 175.678 96.0187 175.629 95.9704C175.693 95.8675 175.755 95.7635 175.817 95.658C175.886 95.7224 175.955 95.7871 176.023 95.8522ZM174.353 98.184C174.33 97.9949 174.819 97.3546 175.038 97.0365C175.048 97.0227 175.052 97.1603 175.211 96.9358C175.265 96.8693 175.466 96.0257 175.657 96.366C175.276 97.0196 174.842 97.6266 174.354 98.1832C174.354 98.1835 174.353 98.1838 174.353 98.184ZM173.696 98.6825C173.778 98.5456 173.857 98.4077 173.932 98.2686C174.038 98.267 174.144 98.2642 174.252 98.2591C174.141 98.3957 174.028 98.5295 173.91 98.6611C173.838 98.6692 173.767 98.6761 173.696 98.6825ZM45.2799 98.8035C45.3347 98.8759 45.3896 98.9482 45.4445 99.0206C45.6318 99.0495 46.4855 98.6241 46.1979 98.5875C45.8919 98.6596 45.5859 98.7316 45.2799 98.8035ZM41.5175 99.0142C41.3292 98.9935 41.141 98.9727 40.9527 98.952C40.7535 99.1036 40.5543 99.2553 40.3551 99.4069C41.2849 99.4048 42.2756 99.4095 42.0794 99.0394C42.2903 99.0186 42.5012 98.9978 42.7121 98.9769C42.5503 99.1539 42.5793 99.2042 43.1416 99.2506C43.2403 99.0167 43.8224 99.0731 44.4713 98.959C43.9945 98.9936 43.5178 99.0279 43.0412 99.0621C43.0373 99.023 43.0335 98.9838 43.0296 98.9447C44.0904 98.8536 42.749 98.7364 42.0745 98.96C42.015 98.9133 41.9555 98.8665 41.896 98.8198C41.7698 98.8846 41.6436 98.9494 41.5175 99.0142ZM117.697 88.1218C117.562 88.1017 117.426 88.0816 117.291 88.0615C116.864 88.6452 117.816 88.0106 118.602 88.3089C118.317 88.0371 119.428 87.8898 119.489 87.8604C119.347 87.7755 119.204 87.6906 119.061 87.6058C118.606 87.7772 118.152 87.9492 117.697 88.1218ZM113.97 88.3205C114.458 88.5054 112.253 88.8596 111.504 88.9205C111.321 88.9349 110.979 88.846 110.851 88.884C110.781 88.9479 110.71 89.0118 110.639 89.0757C110.518 88.9123 109.103 89.3417 108.549 89.529C108.485 89.4729 108.421 89.4167 108.357 89.3605C108.153 89.4196 107.949 89.4788 107.746 89.538C107.761 89.4692 107.777 89.4005 107.793 89.3317C107.648 89.4347 107.504 89.5377 107.359 89.6408C106.756 89.827 107.079 89.4135 106.634 89.5985C106.138 89.8042 107.016 89.8765 107.023 90.0155C107.435 89.9124 108.373 89.6805 108.797 89.6088C109.04 89.5678 108.803 89.8559 109.808 89.4079C110.049 89.4369 110.289 89.4659 110.529 89.495C110.935 89.3243 111.341 89.1538 111.748 88.9837C111.841 89.0619 111.934 89.1402 112.027 89.2185C112.074 89.2255 113.019 88.8684 112.956 88.8085C113.379 88.9206 114.196 88.8265 115.053 88.706C115.128 88.6443 115.203 88.5826 115.278 88.5209C114.466 88.7523 115.006 88.5085 114.745 88.4515C114.595 88.4187 114.142 88.3782 113.97 88.3205ZM51.1098 98.0016C49.7228 98.3725 50.5765 98.0977 49.0523 98.2562C49.1709 98.3629 49.2895 98.4697 49.4082 98.5764C50.1355 98.2835 51.3842 98.2963 51.1113 98.0015C51.1108 98.0015 51.1103 98.0016 51.1098 98.0016ZM36.2463 99.8868C37.0441 99.737 36.6224 99.5931 37.6369 99.4349C37.6374 99.4349 37.6379 99.4348 37.6384 99.4348C37.1095 99.4731 36.5807 99.5113 36.052 99.5495C36.1168 99.6619 36.1816 99.7743 36.2463 99.8868ZM83.3562 93.8864C84.1313 93.809 83.9652 93.7434 84.6907 93.8082C85.6885 93.4142 84.8178 93.5925 84.7842 93.3927C84.5576 93.491 84.3309 93.5893 84.1041 93.6876C83.4991 93.5967 84.0275 93.4115 84.0244 93.3936C84.024 93.3936 84.0235 93.3937 84.023 93.3938C84.013 93.3338 84.0294 93.3181 83.8033 93.3186C83.6544 93.5079 83.5053 93.6972 83.3562 93.8864ZM86.5925 93.0888C86.3524 93.2658 86.2631 93.4562 86.9675 93.4247C86.968 93.4246 86.9685 93.4245 86.9689 93.4244C86.9742 93.1185 87.6761 93.2461 87.9743 93.1751C88.0479 93.1295 88.1215 93.0838 88.1952 93.0382C87.661 93.0552 87.1268 93.0721 86.5925 93.0888ZM98.0712 90.8613C98.1294 91.1885 97.5573 91.3171 98.4208 91.4818C98.5776 91.4494 98.7344 91.4169 98.8912 91.3845C98.9826 91.2951 99.0741 91.2057 99.1656 91.1164C101.266 91.3732 101.694 90.2625 98.3749 91.2093C98.3744 91.2096 98.374 91.2099 98.3735 91.2102C98.2728 91.0939 98.172 90.9776 98.0712 90.8613ZM94.5492 91.4864C94.553 91.6627 94.5568 91.839 94.5606 92.0153C94.0478 91.6756 93.5436 92.1685 92.6261 92.0234C92.5565 92.089 92.4869 92.1547 92.4173 92.2203C92.0736 92.1604 88.8809 92.6688 89.6163 92.816C89.9374 92.8803 90.5674 92.6118 90.6245 92.6058C90.8182 92.5862 91.0931 92.6915 91.4148 92.6279C91.6008 92.591 91.965 92.3504 92.3462 92.2859C93.1984 92.1418 94.8323 92.3437 95.8769 91.7126C95.9663 91.7507 96.0557 91.7889 96.1451 91.8271C96.9704 91.6547 96.6653 91.5374 97.4712 91.6026C97.8671 90.6951 94.3709 92.1694 95.0168 91.3785C95.0163 91.3786 95.0158 91.3787 95.0154 91.3788C94.86 91.4147 94.7046 91.4505 94.5492 91.4864ZM71.5968 95.4972C71.5248 95.3575 70.5811 95.724 70.7603 95.3384C70.4592 95.5065 70.158 95.6743 69.8563 95.8417C69.8634 95.8742 69.8704 95.9067 69.8774 95.9391C70.1907 95.8691 70.5039 95.7987 70.8171 95.7279C70.8257 95.7798 70.8343 95.8317 70.8429 95.8835C71.2882 95.6295 73.2712 95.4232 73.2395 95.6153C73.3335 95.5218 73.4274 95.4283 73.5213 95.3348C74.498 95.4053 75.2761 95.0561 76.333 95.1014C76.4021 95.0246 76.4712 94.9477 76.5402 94.8708C76.6001 94.9146 76.66 94.9583 76.72 95.0021C77.0938 94.9495 77.4671 94.8963 77.8399 94.8426C79.0148 94.4374 76.6207 94.5479 76.338 94.6223C76.3007 94.6325 76.3281 94.7661 76.0936 94.8245C75.6784 94.9294 73.2847 95.1572 72.5641 95.3517C72.5446 95.2633 72.5252 95.1749 72.5058 95.0865C72.2027 95.2238 71.8999 95.3607 71.5968 95.4972ZM102.595 90.4633C102.663 90.5452 102.731 90.6271 102.798 90.709C103.693 90.4675 104.279 90.4524 103.996 90.191C103.996 90.1911 103.995 90.1911 103.995 90.1912C103.528 90.2817 103.062 90.3724 102.595 90.4633ZM169.547 85.8546C169.57 85.6724 169.207 85.5136 168.683 85.5436C168.697 85.6003 168.71 85.6571 168.724 85.7139C169.012 85.615 169.279 85.9389 170.048 86.1029C170.072 86.0141 170.095 85.9252 170.119 85.8364C169.928 85.84 169.738 85.8462 169.547 85.8546ZM101.803 90.5548C101.508 90.4941 100.784 90.9485 101.299 90.8789C101.692 90.8256 101.962 90.5874 101.803 90.5548ZM33.0651 100.019C33.2747 100.018 33.4844 100.016 33.6941 100.015C33.7948 99.9267 33.8955 99.8384 33.9962 99.75C33.9957 99.75 33.9952 99.7501 33.9947 99.7501C33.6848 99.8396 33.3749 99.9292 33.0651 100.019ZM80.7363 94.337C81.4358 94.2099 82.1354 94.0822 82.8348 93.954C82.8334 93.9025 82.832 93.8511 82.8306 93.7996C82.1587 94.1002 81.8433 93.9492 81.6775 93.9643C81.6783 93.9642 81.679 93.9641 81.6797 93.9639C81.1471 94.0114 80.6412 94.0649 80.1339 94.0867C80.3346 94.1702 80.5354 94.2536 80.7363 94.337ZM78.2815 94.4137C78.4573 94.7499 78.6183 94.7666 79.6544 94.3399C79.6046 94.3032 79.5548 94.2664 79.505 94.2296C78.9513 94.3473 78.6393 94.4824 78.7071 94.281C78.5652 94.3253 78.4233 94.3695 78.2815 94.4137ZM89.2681 92.6956C89.12 92.6045 88.1161 92.8914 88.1813 92.939C88.2072 92.958 89.557 92.8746 89.2681 92.6956ZM175.633 88.4173C175.484 88.2841 175.341 88.1588 175.185 88.0288C175.431 88.1389 175.66 88.2436 175.912 88.3711C175.817 88.385 175.724 88.4004 175.633 88.4173ZM177.396 89.2189C177.421 89.3245 176.999 89.2978 177.267 89.787C177.026 89.4642 176.748 89.1878 176.377 88.9041C176.609 89.0207 176.739 89.0681 176.937 89.19C176.977 89.0987 177.016 89.0058 177.052 88.9114C177.173 89.0103 177.288 89.113 177.396 89.2189ZM177.495 89.7352C177.587 89.3914 178.204 90.4509 178.168 90.5804C178.17 90.6073 178.023 90.7703 177.994 90.8187C177.951 90.655 177.896 90.496 177.829 90.3406C177.797 90.4156 177.763 90.4888 177.726 90.5593C177.642 90.391 177.544 90.2312 177.431 90.0773C177.523 90.118 177.614 90.1623 177.704 90.2117C177.648 90.052 177.578 89.893 177.495 89.7352ZM171.987 86.2851C172.198 86.3706 172.406 86.4598 172.612 86.5527C172.606 86.4505 172.599 86.3482 172.591 86.2457C172.464 86.1936 172.336 86.143 172.207 86.0936C172.133 86.1571 172.06 86.2209 171.987 86.2851ZM176.111 88.3422C175.574 88.5028 175.385 87.2159 176.055 88.1C176.125 88.1923 176.163 88.3264 176.111 88.3422ZM178.226 91.0261C178.619 91.4533 177.903 91.4251 178.034 90.9855C178.04 90.9622 178.196 90.9951 178.226 91.0261ZM177.248 95.2254C177.219 95.2757 176.978 95.262 176.918 95.8355C176.853 95.9006 176.787 95.9645 176.721 96.0277C176.748 95.8097 177.443 94.1856 177.545 94.4926C177.439 94.748 177.379 94.9734 177.248 95.2254ZM178.732 93.9096C178.834 93.6153 178.902 93.3784 178.95 93.1667C178.862 93.2192 178.774 93.2669 178.683 93.3178C178.696 93.2033 178.702 93.1063 178.709 92.9946C178.875 92.8365 179.035 92.6663 179.185 92.4846C179.129 93.0204 179.037 93.4455 178.809 94.098C178.784 94.0355 178.758 93.9727 178.732 93.9096ZM177.723 88.1368C178.001 88.5256 178.456 88.8785 178.783 89.5253C178.783 89.5257 178.783 89.5261 178.783 89.5266C178.799 89.5592 178.741 89.6602 178.785 89.7627C178.898 89.8156 179.391 91.6759 179.153 91.5474C178.964 90.8313 179.077 90.5336 178.677 90.4789C178.743 90.4247 178.808 90.3687 178.873 90.3114C178.772 89.6136 178.396 89.5614 178.115 89.3111C178.165 89.2788 178.214 89.2465 178.264 89.2143C178.123 88.9965 177.961 88.7862 177.78 88.5843C177.777 88.6389 177.774 88.6928 177.77 88.7469C177.707 88.6773 177.643 88.6095 177.575 88.5421C177.534 88.2516 177.335 88.022 177.723 88.1368ZM178.156 95.0663C178.488 95.5105 177.001 97.6414 176.311 98.5383C176.484 97.9084 177.16 97.2659 177.497 96.6879C178.131 95.5717 177.549 96.2656 177.591 96.0416C177.61 95.9356 178.197 95.4113 178.156 95.0663ZM176.145 87.0521C176.642 87.4251 177.094 87.6115 177.345 88.0371C177.295 88.038 177.244 88.0387 177.192 88.0391C177.124 87.9174 175.824 86.9201 176.145 87.0521ZM175.089 99.6732C176.066 98.9439 175.342 99.0812 175.993 98.8236C175.734 99.1486 175.459 99.4608 175.169 99.7593C175.142 99.7306 175.115 99.7019 175.089 99.6732ZM99.9573 89.144C99.3786 89.2306 98.7204 89.2579 98.4036 89.4838C98.8001 89.4437 99.1966 89.4036 99.593 89.3637C99.7145 89.2904 99.8359 89.2172 99.9573 89.144ZM116.175 84.8724C116.037 84.8516 115.532 85.0486 115.477 85.0569C115.374 85.0722 115.394 85.0094 115.39 84.9943C114.721 85.1054 115.367 85.1944 114.877 85.3084C114.793 85.3275 113.615 85.414 113.143 85.4943C112.416 85.6173 111.687 85.7186 111.416 85.7642C110.957 85.8409 110.126 86.1108 109.373 86.2376C109.063 86.2897 108.937 86.1979 108.624 86.2506C106.62 86.5876 102.697 87.3861 100.907 87.6153C100.464 87.6715 100.022 87.5991 99.7911 87.6497C99.6166 87.7325 99.4421 87.8153 99.2676 87.8982C98.6253 87.5241 98.5068 87.9728 97.9069 88.1189C97.5257 88.2116 97.3219 88.1032 97.2701 88.1123C96.9269 88.1731 96.7686 88.2679 96.5006 88.3245C96.1997 88.3879 95.7539 88.399 95.6476 88.4286C95.5824 88.4475 95.8259 88.596 94.6503 88.7919C93.4522 88.9915 92.2666 89.1731 91.0473 89.3715C91.5482 89.8596 91.8332 89.4188 92.3269 89.3139C92.4594 89.2858 92.3899 89.3886 92.5053 89.365C92.8315 89.2987 93.4446 89.105 93.7196 89.08C94.0166 89.0529 93.9513 89.275 94.3101 89.1362C94.3283 89.1291 94.2544 89.0545 94.3395 89.0255C95.1944 88.7362 95.5071 88.8346 96.6188 88.6509C97.3553 88.5283 101.812 87.6941 101.975 87.7251C102.825 87.8878 98.1144 88.6776 97.5598 88.7485C97.3656 88.7728 97.5519 88.6452 97.3732 88.6569C97.2975 88.6623 96.658 88.9537 95.9989 89.0807C95.2017 89.2341 93.5729 89.3857 92.811 89.5196C86.2591 90.6658 79.7848 91.6907 73.1992 92.6821C73.0588 92.703 72.8899 92.838 72.4321 92.9055C63.8904 94.1637 54.9947 95.073 46.3157 96.0038C44.4234 96.2069 42.5554 96.4947 40.6366 96.6022C40.4072 96.7042 40.1778 96.8062 39.9484 96.9082C40.5487 96.7862 41.6777 96.8547 41.7792 96.8473C41.8157 96.8445 42.0369 96.733 42.4081 96.7011C42.9302 96.6557 43.1665 96.7099 43.2093 96.7057C43.342 96.6927 43.2469 96.6195 43.3736 96.6073C44.3185 96.5168 45.0471 96.4203 45.9139 96.3319C46.8931 96.2321 47.4051 96.3337 48.1011 96.093C48.1885 96.1499 48.276 96.2069 48.3635 96.2638C48.8674 95.9276 52.0428 95.6263 53.3292 95.5002C53.735 95.4609 53.6764 95.5831 53.8127 95.5682C53.8997 95.5585 53.849 95.4129 54.9128 95.3251C55.4482 95.2809 55.6005 95.3743 55.8679 95.3408C56.0131 95.3224 55.9774 95.2167 56.1863 95.1932C57.3948 95.057 58.3855 94.9784 59.5708 94.8588C59.904 94.825 59.9184 94.9148 59.9927 94.9048C60.2663 94.8682 60.7245 94.6585 61.4208 94.5743C62.567 94.4369 64.8501 94.1492 65.7963 94.0999C65.9353 94.0929 66.0635 94.1862 66.1646 94.1713C66.3175 94.1484 66.3627 94.0275 66.3896 94.0234C66.9018 93.9537 66.6074 94.0994 66.9473 94.0283C67.1305 93.9899 67.3062 93.8355 67.7341 93.7629C68.299 93.6669 68.208 93.8346 68.4431 93.7869C68.4679 93.7811 68.4608 93.6739 68.6933 93.6384C69.5753 93.5047 70.8528 93.2991 71.688 93.1779C71.9279 93.143 72.1169 93.1884 72.4519 93.1403C73.1282 93.048 76.9503 92.4091 77.2685 92.3952C77.3022 92.3941 76.9878 92.6052 77.5285 92.5128C77.6752 92.4223 77.8216 92.3318 77.9681 92.2412C78.2476 92.3025 78.5272 92.3636 78.8068 92.4246C78.7388 92.067 80.2744 91.7575 80.3195 92.1273C80.4911 92.1143 80.6626 92.1012 80.8342 92.0881C81.1444 91.776 81.3943 91.8309 82.0499 91.5686C82.1689 91.6288 82.2879 91.6889 82.4069 91.749C82.4249 91.6927 82.443 91.6364 82.461 91.5801C82.8709 91.8006 83.4192 91.4188 83.4912 91.4052C83.7681 91.3524 83.9889 91.3888 84.1189 91.3646C84.6046 91.2756 85.6418 90.9998 86.2179 90.9494C86.245 90.9472 86.239 91.0717 86.4033 91.0593C86.6995 91.0368 86.6982 90.8561 87.1221 90.9969C87.1919 90.9317 87.2617 90.8666 87.3315 90.8015C87.4193 90.8142 87.5072 90.8269 87.5951 90.8396C88.0847 90.7425 88.5743 90.6454 89.0638 90.5482C88.6509 90.8274 89.185 90.8536 89.6444 90.611C89.7999 90.5287 89.6328 90.4298 89.6845 90.4017C89.7556 90.3636 91.9732 90.0514 92.1327 90.1066C92.2305 90.0499 92.3283 89.9931 92.4261 89.9364C92.4922 90.0054 92.5583 90.0744 92.6243 90.1434C92.6773 90.1063 92.7303 90.0692 92.7833 90.0322C93.3809 90.0718 94.8177 89.5037 95.0921 89.4827C95.2387 89.4715 95.1653 89.8259 95.8514 89.6747C95.8599 89.5793 95.8684 89.484 95.877 89.3886C96.0332 89.3487 96.1894 89.3088 96.3456 89.2689C96.6442 89.2267 97.1037 89.3117 97.1359 89.4176C97.2178 89.3369 97.2997 89.2563 97.3816 89.1757C97.6668 89.345 98.9842 89.0457 99.4969 88.8221C99.6641 88.8596 99.8313 88.8972 99.9985 88.9347C100.196 88.8219 100.393 88.7092 100.59 88.5964C101.073 88.4916 100.58 88.7066 100.686 88.7C100.909 88.6854 101.992 88.281 101.964 88.5647C102.117 88.54 102.269 88.5153 102.422 88.4906C102.488 88.4 102.553 88.3094 102.619 88.2188C102.925 88.4429 103.363 88.2731 104.309 88.2177C104.377 88.1433 104.445 88.0689 104.513 87.9945C104.815 88.0348 105.117 88.0752 105.419 88.1157C105.461 88.0041 105.503 87.8925 105.546 87.7808C105.668 87.7458 105.791 87.7107 105.914 87.6756C106.205 87.8627 106.621 87.5417 106.869 87.5984C107.23 87.6811 106.995 87.8872 106.371 88.021C106.445 88.1794 108.306 87.8003 108.736 87.7196C108.703 87.6917 108.669 87.6637 108.635 87.6358C108.197 87.7322 107.76 87.8289 107.322 87.926C106.884 87.5673 108.102 87.4857 108.645 87.344C108.694 87.3308 108.954 87.1264 109.512 87.053C109.728 87.0246 110.604 87.124 110.766 87.1119C112.076 87.0153 111.073 86.8321 112.384 86.9262C112.085 86.7445 112.841 86.8166 113.591 86.6578C113.719 86.6305 114.785 86.2841 114.858 86.2684C115.314 86.1701 114.842 86.4423 115.501 86.2911C115.573 86.2273 115.645 86.1636 115.718 86.0998C115.873 86.0767 116.028 86.0536 116.183 86.0305C117.192 86.3524 117.361 85.9811 117.689 85.8885C117.822 85.8512 117.665 85.9969 118.012 85.9205C118.143 85.8919 118.274 85.7703 118.629 85.7121C119.737 85.5304 120.175 85.9065 121.135 85.3172C121.301 85.3601 121.466 85.4031 121.632 85.4462C121.727 85.3539 121.823 85.2617 121.918 85.1695C122.759 85.2839 122.435 85.0932 122.728 85.0562C123.502 84.9577 125.09 84.794 125.253 84.9625C125.865 84.4483 126.725 84.8295 126.986 84.7799C127.136 84.7083 127.286 84.6368 127.436 84.5654C127.626 84.5947 127.816 84.6241 128.007 84.6537C127.865 84.2445 128.869 84.5412 128.961 84.5368C129.067 84.5299 130.517 84.2316 131.063 84.1719C131.609 84.1114 132.571 84.1196 132.655 84.1107C132.751 84.1 133.666 83.8838 134.392 83.8089C135.028 83.7381 138.803 83.5361 138.549 83.3738C138.298 83.3445 137.944 83.3321 137.639 83.3366C136.691 83.341 131.157 83.8319 129.745 83.979C126.909 84.2541 123.964 84.6476 121.123 85.001C120.956 85.0218 120.915 84.9167 120.772 84.9342C120.554 84.9614 120.018 85.1476 119.804 85.1756C119.003 85.2793 118.028 85.4023 117.6 85.4621C116.642 85.5963 115.977 85.6285 115.252 85.7264C115.025 85.7571 113.901 86.0643 113.108 86.1283C112.961 86.1196 112.814 86.111 112.668 86.1024C113.066 86.0043 114.112 85.7501 114.603 85.6654C115.333 85.5395 115.729 85.5706 115.999 85.5288C116.225 85.4938 117.369 85.2226 117.896 85.1439C118.059 85.1194 118.109 85.2283 118.249 85.2077C119.009 85.0948 120.01 84.9495 120.654 84.7457C120.39 84.8194 122.082 84.656 122.17 84.6442C122.321 84.6235 122.471 84.4944 122.78 84.4526C123.374 84.3726 123.328 84.6056 124.041 84.2839C124.233 84.3246 124.425 84.3654 124.618 84.4063C124.59 84.1063 126.964 84.2119 127.581 83.7699C127.593 83.7248 124.557 83.9938 124.307 84.0231C122.807 84.1835 120.606 84.561 119.149 84.7166C118.711 84.7628 117.314 84.7814 117.211 84.8003C117.045 84.8298 117.21 84.9109 117.139 84.9251C115.675 85.2189 116.381 84.9035 116.175 84.8724ZM178.668 88.9333C178.482 88.6392 178.263 88.3584 178.015 88.0933C178.08 88.065 178.146 88.0379 178.212 88.0113C178.313 88.1519 178.407 88.294 178.493 88.4387C178.605 88.5125 178.715 88.5903 178.822 88.6721C178.772 88.7603 178.721 88.8478 178.668 88.9333ZM179.336 89.5556C179.495 89.8289 179.364 89.8968 179.383 89.9642C179.436 90.1685 179.542 90.3264 179.588 90.5283C179.217 90.3732 179.216 89.9014 179.336 89.5556ZM173.892 85.0454C173.965 85.0961 174.306 85.64 175.014 85.6464C175.381 85.9627 175.733 86.2907 176.071 86.6294C175.487 86.0614 174.43 85.6941 174.084 85.5273C173.953 85.4619 173.974 85.3516 173.867 85.3003C173.25 85.0049 172.544 85.0042 172.605 84.6418C173.174 84.9657 173.801 84.9827 173.892 85.0454ZM177.401 87.2652C177.443 87.3909 177.478 87.5134 177.508 87.6347C177.24 87.4167 176.874 87.1619 176.56 86.9484C176.689 86.944 176.821 86.9418 176.955 86.9419C177.102 87.0459 177.254 87.1558 177.401 87.2652ZM146.605 82.7129C146.864 82.7007 147.123 82.6891 147.382 82.6781C147.365 82.6238 147.069 82.6379 146.958 82.6061C146.958 82.6061 146.959 82.6061 146.959 82.6061C146.836 82.5701 146.884 82.4967 146.661 82.4766C146.643 82.5554 146.624 82.6341 146.605 82.7129ZM39.6105 96.7042C39.1744 96.7433 35.1521 97.135 35.5143 97.3011C35.6967 97.384 37.0638 97.163 37.4696 97.125C38.0166 97.0737 39.5145 97.1451 39.6105 96.7042ZM32.4836 97.3607C32.4333 97.5662 34.9496 97.3524 35.1921 97.294C35.1371 97.2707 35.0505 97.2154 34.9796 97.2079C34.6339 97.1724 33.0306 97.3619 32.4836 97.3607ZM132.042 83.399C132.256 83.4769 132.469 83.5549 132.682 83.6331C132.614 83.5083 132.547 83.3835 132.479 83.2587C132.333 83.3054 132.188 83.3522 132.042 83.399ZM112.515 86.1876C109.166 86.6985 105.819 87.2342 102.473 87.7828C102.759 87.6801 103.044 87.5775 103.329 87.4749C106.215 87.0177 109.298 86.5763 112.072 86.0612C112.22 86.1033 112.368 86.1454 112.515 86.1876ZM173.284 84.1422C172.498 83.828 171.805 83.6959 170.956 83.3033C171.848 83.397 172.189 83.7497 173.067 83.8458C173.067 83.846 173.068 83.8461 173.068 83.8463C173.141 83.9446 173.213 84.0432 173.284 84.1422ZM154.334 82.0012C154.597 81.9089 154.861 81.8173 155.125 81.7263C154.808 81.7252 154.491 81.725 154.173 81.7258C154.227 81.8175 154.281 81.9093 154.334 82.0012ZM83.2543 90.5297C82.3907 90.8781 80.0372 90.9006 79.3472 91.2581C79.3026 91.2814 79.7525 91.3108 79.0836 91.6204C79.6065 91.4937 79.9735 91.3913 79.9879 91.2318C80.1536 91.2578 80.3193 91.2837 80.485 91.3096C80.7394 91.2273 80.9937 91.1448 81.2479 91.0623C81.2448 91.2193 81.2642 91.2078 81.6475 91.037C81.8365 91.0452 82.0255 91.0533 82.2146 91.0615C82.2813 90.9841 82.3479 90.9067 82.4145 90.8293C82.5877 90.8931 82.7608 90.9569 82.934 91.0207C83.534 90.8198 83.1294 90.7078 83.2543 90.5297ZM86.3984 90.0391C86.2472 90.0309 82.1089 90.8383 84.0491 90.8249C84.5385 90.7328 85.0279 90.6405 85.5172 90.548C85.0259 90.1139 86.4396 90.3378 86.5513 90.3297C87.0853 90.29 87.735 90.0569 88.1174 89.9985C88.4464 89.9483 88.6565 90.0054 88.8868 89.964C89.6713 89.8228 90.9118 89.6085 91.0473 89.3715C90.4358 89.471 89.815 89.5743 89.1807 89.6873C88.5099 89.8068 87.8862 89.7108 86.6698 90.1935C86.3528 90.2173 86.4375 90.0413 86.3984 90.0391ZM155.919 81.7525C155.886 81.9626 157.489 81.9336 157.501 81.8517C157.505 81.8025 156.983 81.7947 156.908 81.7752C156.908 81.7752 156.907 81.7752 156.907 81.7751C156.876 81.7666 157.035 81.6878 156.79 81.6616C156.499 81.6911 156.209 81.7214 155.919 81.7525ZM45.8197 95.6115C45.5916 95.5166 40.653 96.0504 40.5128 96.1203C40.4748 96.1399 40.5351 96.1864 40.5224 96.2179C41.6593 95.9377 43.3182 95.973 44.4142 95.8763C44.7197 95.8492 44.6201 95.7745 44.6372 95.7712C44.638 95.7711 44.6387 95.7711 44.6394 95.771C44.8125 95.7535 45.6149 95.8795 45.8197 95.6115ZM77.7929 91.6104C78.0066 91.6091 78.2204 91.6079 78.4342 91.6065C78.4765 91.5331 78.5188 91.4597 78.5611 91.3863C78.5606 91.3864 78.5602 91.3864 78.5597 91.3865C78.3041 91.4612 78.0485 91.5358 77.7929 91.6104ZM70.5249 92.5013C70.5823 92.5397 70.6397 92.5782 70.6972 92.6166C71.2247 92.5478 71.7519 92.4778 72.2793 92.4067C72.2301 92.4403 72.1808 92.4739 72.1315 92.5074C72.938 92.4594 73.2435 92.2491 73.6707 92.2083C73.6702 92.2084 73.6697 92.2084 73.6693 92.2085C73.7153 92.2043 73.785 92.2911 73.9552 92.2686C74.3454 92.2174 75.4654 92.0801 75.5847 91.9631C75.8373 91.7155 73.6112 92.1588 73.1911 92.2104C73.0014 92.2344 72.7616 92.1849 72.6463 92.2C72.5201 92.2168 72.3651 92.3547 72.0576 92.3963C71.9675 92.4085 70.9526 92.4208 70.5249 92.5013ZM61.2361 93.8603C61.4115 93.9439 61.7392 93.8026 61.8662 93.8042C61.8965 93.8045 61.675 93.9194 61.9595 93.9109C62.0318 93.8421 62.1042 93.7733 62.1764 93.7045C61.8631 93.7567 61.5496 93.8087 61.2361 93.8603ZM158.618 81.699C158.573 81.675 157.71 81.6635 157.669 81.6773C157.149 81.8561 158.933 81.8753 158.618 81.699ZM179.179 87.05C179.309 86.415 181.464 90.7661 181.135 91.3066C180.976 91.2926 180.988 90.1802 180.841 90.7854C180.933 90.2137 180.319 88.7966 180.137 88.4894C180.047 88.2919 180.139 88.1636 180.125 88.1328C180.081 87.9954 179.22 87.2021 179.179 87.05ZM180.297 95.0669C180.49 94.6642 180.681 94.2571 180.834 93.8348C180.709 94.3504 180.534 94.8508 180.353 95.3499C180.335 95.2552 180.316 95.1607 180.297 95.0669ZM180.155 95.6163C180.325 95.6737 179.561 97.004 179.386 97.3641C179.356 96.834 179.935 96.2926 180.155 95.6163ZM164.361 81.5194C163.665 81.3634 163.335 81.8587 164.2 81.6876C164.226 81.6819 164.39 81.5272 164.361 81.5194ZM82.922 89.8538C82.8037 89.8706 81.3123 89.9506 81.241 90.0457C81.0159 90.3493 81.9597 90.0858 82.298 90.1298C82.8439 90.2016 82.1017 90.46 83.354 90.1522C83.3108 90.2127 83.2676 90.2732 83.2244 90.3338C83.9697 90.2266 83.6665 89.9081 83.7919 89.8396C83.8303 89.8187 84.2994 89.771 84.3793 89.734C85.3764 89.2688 83.0316 89.8383 82.922 89.8538ZM147.004 81.3536C145.601 81.2694 146.213 81.4625 144.782 81.5339C144.741 81.6496 146.827 81.4605 147.004 81.3536ZM96.3423 87.7921C94.9279 88.0776 93.7333 88.1273 92.4414 88.5529C92.58 88.8463 96.7245 87.8089 96.3423 87.7921ZM29.1792 96.2574C34.819 96.2577 41.2433 95.464 47.1836 94.8476C47.831 94.7806 47.9057 94.8974 48.1387 94.8599C48.2913 94.8354 48.2542 94.7388 48.4581 94.7173C55.8281 93.9391 62.8605 93.0048 69.892 92.0742C70.3349 92.0172 72.5182 91.9174 72.929 91.5277C73.2397 91.2337 71.725 91.6516 71.4669 91.6861C71.2733 91.7126 71.2485 91.5997 71.1195 91.6179C70.9827 91.6372 71.107 91.6989 70.9483 91.723C70.2758 91.8253 69.5366 91.8984 68.9284 91.9894C62.9626 92.8807 57.1271 93.5403 51.1549 94.1638C50.432 94.2393 50.5709 94.1315 50.5345 94.135C50.534 94.1353 50.5336 94.1356 50.5331 94.1359C46.6571 94.5367 42.247 95.1818 38.1284 95.5041C35.2276 95.7236 32.326 95.9409 29.4241 96.1642C29.3425 96.1953 29.2609 96.2263 29.1792 96.2574ZM86.0121 89.6647C85.5963 89.3816 85.5748 89.7417 84.2674 89.8174C84.1728 89.8936 84.0782 89.9698 83.9836 90.0459C84.6605 89.9191 85.3374 89.7919 86.0143 89.6644C86.0136 89.6645 86.0129 89.6646 86.0121 89.6647ZM77.5099 90.9491C77.2173 90.5223 74.3989 91.3072 73.0911 91.4092C72.8891 91.679 74.7546 91.2893 75.2017 91.2434C75.4249 91.2213 76.6499 91.2747 77.5299 90.9945C77.5232 90.9793 77.5166 90.9642 77.5099 90.9491ZM175.417 83.6752C175.216 83.5893 175.012 83.506 174.808 83.4265C175.282 83.7041 175.745 83.9999 176.192 84.3113C175.453 83.8573 174.685 83.4479 173.892 83.0869C174.079 83.058 174.267 83.0317 174.457 83.0081C174.784 83.2222 175.105 83.4453 175.417 83.6752ZM172.789 82.6206C174.236 83.1069 172.655 82.8002 172.332 82.5811C172.137 82.4447 172.641 82.5718 172.789 82.6206ZM168.995 81.4678C169.726 81.4164 171.142 81.748 170.561 81.9599C169.851 81.6273 169.339 81.6511 168.261 81.3839C168.432 81.3443 168.602 81.3059 168.774 81.2692C168.775 81.2693 168.776 81.2694 168.776 81.2695C168.85 81.3354 168.923 81.4015 168.995 81.4678ZM173.518 82.6661C174.39 83.1989 171.68 82.1537 172.583 82.3316C172.626 82.3359 173.485 82.6412 173.518 82.6661ZM35.3192 95.2999C35.2137 95.4225 35.9562 95.3481 36.2039 95.3315C37.278 95.2602 38.6465 95.0778 39.7612 94.984C39.6738 94.9556 39.5864 94.9271 39.499 94.8987C38.106 95.0329 36.7127 95.1663 35.3192 95.2999ZM43.2433 94.6409C44.0079 94.5648 44.7726 94.4882 45.5369 94.411C45.6082 94.4039 45.9326 94.2746 45.6818 94.2765C44.8692 94.3986 44.0563 94.52 43.2433 94.6409ZM90.6845 88.1922C90.0928 88.2292 91.7124 87.6282 91.6948 87.9801C91.358 88.0508 91.0212 88.1215 90.6845 88.1922ZM96.0701 87.1384C95.7109 87.2324 95.3518 87.3264 94.9927 87.4205C94.9856 87.3815 94.9785 87.3426 94.9714 87.3037C95.3376 87.2486 95.7038 87.1935 96.0701 87.1384ZM32.3029 95.5151C32.7059 95.6116 33.6338 95.5 34.2139 95.4462C33.8033 95.3694 32.8568 95.5193 32.3029 95.5151ZM81.956 89.5249C82.0183 89.6084 79.7034 89.9687 80.4771 89.676C80.9701 89.6259 81.463 89.5756 81.956 89.5249ZM77.2387 90.1636C77.7316 90.063 78.1208 90.0315 78.0421 90.1911C77.7781 90.228 77.5141 90.2647 77.25 90.3014C77.2462 90.2555 77.2425 90.2095 77.2387 90.1636ZM166.361 80.8181C165.497 80.74 164.623 80.6879 163.774 80.6525C163.808 80.6149 163.842 80.5772 163.875 80.5396C164.696 80.5744 165.542 80.6258 166.377 80.7011C166.371 80.7401 166.366 80.7791 166.361 80.8181ZM31.7911 95.2083C31.2141 95.2908 30.6371 95.3735 30.06 95.4564C30.6427 95.4255 31.2253 95.3949 31.8079 95.3644C31.8027 95.3121 31.7976 95.2598 31.7925 95.2075C31.792 95.2077 31.7916 95.208 31.7911 95.2083ZM178.05 84.1503C175.76 82.5085 178.955 84.2347 179.345 84.9273C179.346 84.9276 179.347 84.9279 179.347 84.9282C179.387 84.9887 179.204 84.994 179.264 85.0996C179.057 84.8739 178.875 84.6812 178.673 84.4755C178.424 84.381 178.169 84.2881 177.915 84.2003C177.856 84.132 177.799 84.0647 177.74 83.9971C177.844 84.0473 177.946 84.0978 178.05 84.1503ZM182.259 94.9572C181.324 97.2794 182.066 94.9592 182.57 93.5307C182.636 93.5441 182.35 94.7607 182.259 94.9572ZM181.658 87.6114C181.403 87.2264 181.116 86.8648 180.81 86.5349C180.799 86.4692 180.787 86.4035 180.775 86.3382C181.027 86.5821 181.267 86.8425 181.494 87.1232C181.553 87.2842 181.609 87.4485 181.658 87.6114ZM170.407 80.3855C169.784 80.2177 168.92 80.3889 170.939 80.7511C170.947 80.7124 170.955 80.6737 170.964 80.6351C170.882 80.6214 170.639 80.602 170.627 80.5964C170.592 80.5784 170.666 80.4589 170.407 80.3855ZM181.061 99.782C181.03 99.8521 181.362 100.135 180.533 100.555C180.409 100.771 180.281 100.986 180.147 101.198C180.035 101.192 179.924 101.185 179.812 101.177C180.459 100.473 180.349 100.271 180.388 100.216C180.553 99.9497 180.499 100.194 180.615 100.028C180.92 99.6029 181.462 98.5541 181.423 99.1547C181.409 99.3725 181.092 99.709 181.061 99.782ZM182.202 98.2955C182.118 98.3811 182.179 97.9971 182.109 98.0583C182.053 98.1156 181.395 99.0452 181.365 98.6755C181.464 98.5199 181.56 98.3634 181.654 98.2056C181.733 98.1774 181.812 98.1486 181.891 98.1192C181.928 97.9365 181.961 97.7543 181.992 97.5726C182.248 97.3683 182.683 96.8576 182.461 97.5989C182.572 97.3393 182.678 97.0789 182.778 96.8174C182.774 96.658 182.769 96.4994 182.761 96.3417C182.827 96.4497 182.892 96.5585 182.956 96.6683C182.728 97.2162 182.478 97.7597 182.202 98.2955ZM176.259 104.978C176.257 104.916 176.254 104.854 176.252 104.792C175.478 105.46 173.969 106.276 174.645 105.545C175.896 104.834 177.035 103.985 178.066 102.993C178.162 102.958 178.258 102.921 178.354 102.884C177.47 103.499 178.142 103.768 177.283 104.224C177.133 104.297 177.378 103.841 176.64 104.567C176.7 104.589 176.76 104.611 176.82 104.632C176.624 104.759 176.439 104.872 176.259 104.978ZM168.388 108.261C169.892 107.873 168.313 108.565 168.002 108.495C168.003 108.494 168.003 108.494 168.004 108.494C167.139 108.306 168.785 108.016 168.89 107.98C169.021 107.934 169.226 107.546 170.1 107.74C169.518 107.924 168.947 108.095 168.388 108.261ZM173.473 106.521C173.342 106.591 173.384 106.485 173.327 106.512C173.326 106.513 173.326 106.513 173.325 106.513C172.471 106.934 170.492 107.702 170.208 107.518C170.798 107.333 173.573 106.174 173.823 106.205C173.707 106.311 173.59 106.417 173.473 106.521ZM178.955 102.46C179.493 102.137 178.564 103.138 178.24 103.314C178.181 103.345 178.405 102.787 178.955 102.46ZM156.92 78.2698C155.788 78.3543 157.272 78.4739 156.756 78.6228C156.972 78.6125 157.188 78.6026 157.404 78.5932C157.243 78.4852 157.082 78.3774 156.92 78.2698ZM106.044 83.0196C105.785 83.0429 105.921 83.1172 105.899 83.1222C105.731 83.1469 105.56 83.0961 105.496 83.1147C104.328 83.4636 105.134 83.4132 105.149 83.4296C105.19 83.5185 104.894 83.6783 105.346 83.7138C105.604 83.6379 105.862 83.5621 106.121 83.4865C106.26 83.5169 106.4 83.5474 106.539 83.578C107.045 83.3825 106.354 83.4628 106.253 83.3283C106.213 83.2753 106.696 83.1262 106.044 83.0196ZM154.893 77.9373C154.709 78.1023 154.259 78.3111 154.701 78.4774C154.701 78.4774 154.702 78.4774 154.702 78.4774C154.784 78.5078 155.116 78.5254 155.218 78.5686C155.946 78.3521 155.67 78.1216 154.893 77.9373ZM110.738 81.9726C111.17 81.9442 111.603 81.9162 112.036 81.8886C112.044 81.9877 112.051 82.0869 112.059 82.1861C111.827 82.1949 111.594 82.2038 111.362 82.2128C111.289 82.2699 111.216 82.3271 111.143 82.3843C111.444 82.452 111.744 82.5199 112.045 82.588C112.38 82.4963 112.716 82.4047 113.051 82.3135C112.886 82.2857 112.721 82.258 112.556 82.2303C113.383 82.0453 113.237 82.3116 113.942 82.298C114.165 82.1714 114.388 82.0448 114.611 81.9184C114.968 81.9582 115.324 81.9984 115.68 82.0388C116.25 81.9108 116.291 81.8338 115.887 81.787C116.156 81.6256 116.498 81.7665 116.836 81.6675C116.864 81.6594 116.794 81.5552 116.819 81.5501C118.594 81.2142 118.541 81.5247 118.828 81.4962C119.031 81.4759 119.807 81.1635 119.81 81.094C119.813 81.0008 118.087 80.8742 120.709 80.4984C119.317 80.4368 117.813 80.9124 118.861 81.1355C118.427 81.1589 116.551 81.5244 116.429 81.5317C116.251 81.541 116.292 81.3933 116.072 81.4221C115.941 81.4395 115.645 81.8063 114.576 81.6837C114.452 81.7554 114.329 81.8272 114.205 81.8989C114.076 81.8748 113.947 81.8506 113.817 81.8265C114.047 81.6359 114.278 81.4453 114.508 81.2548C113.529 81.5712 112.649 81.3878 112.079 81.7438C111.546 81.7947 111.285 81.8045 111.491 81.6355C111.333 81.66 111.174 81.6847 111.016 81.7093C110.923 81.7971 110.83 81.8848 110.738 81.9726ZM151.565 78.2013C151.023 78.0577 150.837 78.3947 150.921 78.4114C151.395 78.504 151.847 78.2763 151.565 78.2013ZM107.022 83.0403C107.613 83.0318 108.203 83.0239 108.794 83.0166C108.778 82.913 108.761 82.8093 108.745 82.7057C108.17 82.8167 107.596 82.9282 107.022 83.0403ZM157.09 78.0365C157.143 78.116 157.197 78.1955 157.25 78.275C157.906 77.9986 158.544 78.4265 158.868 78.3502C158.938 78.3335 158.801 78.1908 158.668 78.1576C158.586 78.1357 157.206 78.0105 157.09 78.0365ZM184.042 88.7271C183.882 88.3974 183.704 88.0775 183.512 87.7736C183.6 87.7558 183.689 87.7384 183.779 87.7216C183.866 87.8802 183.95 88.0437 184.029 88.2081C184.038 88.3824 184.042 88.5553 184.042 88.7271ZM181.952 85.2899C181.555 84.8196 181.14 84.4035 180.654 83.9896C182.457 85.5243 181.075 84.1491 182.147 85.1219C182.082 85.1779 182.017 85.2339 181.952 85.2899ZM177.788 81.8599C177.867 81.8443 177.946 81.829 178.025 81.814C178.455 82.0649 178.868 82.3217 179.299 82.609C179.13 82.2759 178.958 81.9485 178.782 81.6258C178.625 81.5289 178.464 81.4322 178.304 81.3385C178.131 81.5113 177.959 81.6851 177.788 81.8599ZM94.6552 84.5166C94.4017 84.5563 93.5487 84.8636 93.5963 84.9154C93.9739 84.9248 94.3515 84.9342 94.7291 84.9436C94.7132 84.8397 94.6973 84.7357 94.6814 84.6318C94.7418 84.6746 94.8022 84.7175 94.8627 84.7603C95.064 84.6863 95.2653 84.6123 95.4667 84.5383C95.5868 84.6112 95.707 84.684 95.8271 84.7569C95.9149 84.6356 96.0027 84.5144 96.0905 84.3931C95.0553 84.3796 95.121 84.5572 94.9118 84.5906C94.8057 84.6077 94.7278 84.5549 94.6847 84.5289C94.6749 84.5248 94.665 84.5207 94.6552 84.5166ZM107.315 82.3153C106.106 82.4829 105.463 82.8681 104.555 82.7817C105.192 83.176 108.718 82.0912 110.057 82.2993C110.177 82.2004 110.297 82.1015 110.417 82.0027C109.734 82.1808 109.228 82.0959 108.886 82.1264C108.615 82.1506 108.656 82.228 108.635 82.2301C108.634 82.2303 108.633 82.2304 108.632 82.2306C107.998 82.2969 107.791 82.2493 107.315 82.3153ZM158.02 77.667C157.688 77.5346 157.102 77.5372 157.093 77.7196C157.418 77.7776 157.742 77.8365 158.066 77.8964C158 77.8482 158.076 77.6896 158.02 77.667ZM177.528 81.1321C177.29 80.9328 176.625 80.6571 176.83 80.9366C176.868 80.9849 177.546 81.2155 177.047 81.2747C177.654 81.591 177.664 81.2462 177.528 81.1321ZM128.053 79.7205C128.267 79.6892 128.481 79.6581 128.696 79.6271C128.737 79.5481 128.778 79.469 128.82 79.3899C128.564 79.4999 128.309 79.61 128.053 79.7205ZM160.845 77.6264C161.122 77.9977 161.635 77.6679 162.169 77.9899C162.372 78.0018 162.575 78.0142 162.778 78.0269C162.778 78.0269 162.779 78.0269 162.779 78.0269C162.79 77.9291 162.8 77.8312 162.811 77.7333C162.152 77.6934 161.499 77.6579 160.845 77.6264ZM114.687 81.3674C114.825 81.3929 114.964 81.4185 115.102 81.4441C115.328 81.3565 115.554 81.269 115.78 81.1817C115.648 81.1627 115.516 81.1437 115.383 81.1248C115.151 81.2055 114.919 81.2864 114.687 81.3674ZM164.405 77.7747C163.698 77.6864 163.42 77.9842 164.318 78.0387C164.704 78.063 165.158 77.8718 164.405 77.7747ZM81.6732 86.8313C81.9103 86.8189 82.1474 86.8064 82.3846 86.7939C82.4531 86.7157 82.5215 86.6375 82.5899 86.5593C82.2843 86.6501 81.9787 86.7408 81.6732 86.8313ZM180.785 83.2833C180.715 83.3119 180.645 83.3414 180.577 83.3716C180.36 83.1881 180.194 83.0535 180.005 82.9032C180.092 82.8847 180.179 82.8662 180.265 82.8478C180.422 82.9769 180.59 83.1143 180.785 83.2833ZM83.2463 86.6092C83.4347 86.5904 83.623 86.5715 83.8113 86.5526C83.9311 86.5 84.0509 86.4474 84.1708 86.3948C83.9912 86.3928 83.8117 86.3908 83.6322 86.3887C83.5036 86.4622 83.375 86.5357 83.2463 86.6092ZM171.593 78.8402C171.311 78.6839 170.072 78.6588 171.123 78.9629C171.792 79.1652 171.635 78.8642 171.593 78.8402ZM173.224 79.221C172.131 78.7354 172.756 79.6844 174.253 79.6973C172.879 79.2828 173.288 79.2561 173.224 79.221ZM182.994 84.7178C183.02 84.7503 182.959 84.8439 183.156 85.1037C183.882 86.0367 184.562 87.5154 184.809 88.3483C185.898 90.3635 184.776 96.616 184.187 96.6075C184.082 96.6914 183.994 96.3689 183.967 96.4095C183.891 96.5337 183.684 97.2782 183.603 97.0894C183.906 96.3696 184.14 95.8221 184.417 94.8815C184.451 95.1417 184.481 95.3886 184.514 95.6114C185.148 93.333 184.869 94.0602 184.781 93.3626C184.925 92.981 185.051 92.583 185.154 92.1686C185.1 91.2576 184.934 90.3394 184.646 89.461C184.756 89.6502 184.86 89.8441 184.959 90.0423C184.816 88.6351 184.79 89.0233 184.412 88.3424C184.474 88.3196 184.536 88.2968 184.597 88.2739C183.977 87.037 183.967 86.7577 183.832 86.4864C183.493 85.9437 182.616 85.7179 181.559 83.6785C180.582 83.3148 181.07 82.7715 180.497 82.8206C179.738 81.779 181.727 83.2662 182.73 84.5052C182.73 84.5058 182.731 84.5064 182.731 84.507C182.804 84.5927 182.742 84.4078 182.994 84.7178ZM177.194 80.8503C178.028 80.8794 175.355 79.5528 176.041 80.4206C176.166 80.4955 176.29 80.571 176.413 80.6479C176.675 80.7112 176.935 80.7784 177.196 80.8511C177.195 80.8508 177.195 80.8505 177.194 80.8503ZM152.526 77.2001C150.183 77.3771 151.52 77.5511 152.31 77.3477C152.468 77.3075 152.554 77.2544 152.526 77.2001ZM105.552 82.3344C105.526 82.3801 105.499 82.4259 105.473 82.4717C106.226 82.3102 107.72 82.2302 107.656 81.9612C106.955 82.0848 106.253 82.2092 105.552 82.3344ZM111.541 81.201C111.374 81.2098 110.7 81.2749 110.797 81.3644C111.098 81.3916 111.398 81.4189 111.699 81.4465C111.827 81.3804 111.955 81.3144 112.083 81.2485C111.892 81.2621 111.586 81.1985 111.541 81.201Z" fill="#168765"/>
</svg>
